<svg width="18" height="18" viewBox="0 0 18 18" fill="none" xmlns="http://www.w3.org/2000/svg">
<path fill-rule="evenodd" clip-rule="evenodd" d="M4.28006 4.28006C4.54366 4.01646 4.97105 4.01646 5.23465 4.28006L13.7199 12.7653C13.9835 13.0289 13.9835 13.4563 13.7199 13.7199C13.4563 13.9835 13.0289 13.9835 12.7653 13.7199L4.28006 5.23466C4.01645 4.97105 4.01645 4.54367 4.28006 4.28006Z" fill="#333639"/>
<path fill-rule="evenodd" clip-rule="evenodd" d="M13.7199 4.28007C13.9835 4.54367 13.9835 4.97106 13.7199 5.23466L5.23466 13.7199C4.97105 13.9835 4.54367 13.9835 4.28006 13.7199C4.01646 13.4563 4.01646 13.0289 4.28006 12.7653L12.7653 4.28007C13.0289 4.01646 13.4563 4.01646 13.7199 4.28007Z" fill="#333639"/>
</svg>
