<svg width="20" height="20" viewBox="0 0 20 20" fill="none" xmlns="http://www.w3.org/2000/svg">
<path fill-rule="evenodd" clip-rule="evenodd" d="M3.57533 5.41838C3.08568 5.81955 2.75 6.46703 2.75 7.52941V12.4706C2.75 13.533 3.08568 14.1804 3.57533 14.5816C4.09103 15.0042 4.89479 15.25 6 15.25H14C15.1052 15.25 15.909 15.0042 16.4247 14.5816C16.9143 14.1804 17.25 13.533 17.25 12.4706V7.52941C17.25 6.46703 16.9143 5.81955 16.4247 5.41838C15.909 4.99585 15.1052 4.75 14 4.75H6C4.89479 4.75 4.09103 4.99585 3.57533 5.41838ZM2.62467 4.25809C3.50897 3.53357 4.70521 3.25 6 3.25H14C15.2948 3.25 16.491 3.53357 17.3753 4.25809C18.2857 5.00398 18.75 6.12121 18.75 7.52941V12.4706C18.75 13.8788 18.2857 14.996 17.3753 15.7419C16.491 16.4664 15.2948 16.75 14 16.75H6C4.70521 16.75 3.50897 16.4664 2.62467 15.7419C1.71432 14.996 1.25 13.8788 1.25 12.4706V7.52941C1.25 6.12121 1.71432 5.00398 2.62467 4.25809Z" fill="#292D32"/>
<path fill-rule="evenodd" clip-rule="evenodd" d="M15.5998 6.54977C15.8485 6.88104 15.7815 7.35117 15.4502 7.59983L12.0164 10.1772C10.8871 11.0688 9.10403 11.0687 7.97483 10.1769L4.54905 7.5993C4.21807 7.35026 4.15164 6.88006 4.40068 6.54907C4.64972 6.21809 5.11993 6.15166 5.45091 6.4007L8.88425 8.98403L8.90045 8.99657C9.48539 9.46225 10.5062 9.46225 11.0912 8.99657C11.0968 8.99214 11.1024 8.98778 11.1081 8.98351L14.5497 6.40017C14.881 6.15152 15.3512 6.21849 15.5998 6.54977Z" fill="#292D32"/>
</svg>
