<svg width="20" height="20" viewBox="0 0 20 20" fill="none" xmlns="http://www.w3.org/2000/svg">
<path fill-rule="evenodd" clip-rule="evenodd" d="M11.1684 1.52666C11.6768 1.04832 12.3805 0.916668 13.1083 0.916668H16.475C17.2028 0.916668 17.9065 1.04832 18.4149 1.52666C18.9349 2.01581 19.0833 2.70681 19.0833 3.41667V9.08334C19.0833 9.7932 18.9349 10.4842 18.4149 10.9733C17.9065 11.4517 17.2028 11.5833 16.475 11.5833H13.1083C12.3805 11.5833 11.6768 11.4517 11.1684 10.9733C10.6484 10.4842 10.5 9.7932 10.5 9.08334V3.41667C10.5 2.70681 10.6484 2.01581 11.1684 1.52666ZM12.1962 2.61918C12.1182 2.69252 12 2.87653 12 3.41667V9.08334C12 9.62348 12.1182 9.80748 12.1962 9.88082C12.2857 9.96499 12.5111 10.0833 13.1083 10.0833H16.475C17.0722 10.0833 17.2977 9.96499 17.3871 9.88082C17.4651 9.80748 17.5833 9.62348 17.5833 9.08334V3.41667C17.5833 2.87653 17.4651 2.69252 17.3871 2.61918C17.2977 2.53501 17.0722 2.41667 16.475 2.41667H13.1083C12.5111 2.41667 12.2857 2.53501 12.1962 2.61918Z" fill="#292D32"/>
<path fill-rule="evenodd" clip-rule="evenodd" d="M11.1684 13.1933C11.6768 12.715 12.3805 12.5833 13.1083 12.5833H16.475C17.2028 12.5833 17.9065 12.715 18.4149 13.1933C18.9349 13.6825 19.0833 14.3735 19.0833 15.0833V16.5833C19.0833 17.2932 18.9349 17.9842 18.4149 18.4733C17.9065 18.9517 17.2028 19.0833 16.475 19.0833H13.1083C12.3805 19.0833 11.6768 18.9517 11.1684 18.4733C10.6484 17.9842 10.5 17.2932 10.5 16.5833V15.0833C10.5 14.3735 10.6484 13.6825 11.1684 13.1933ZM12.1962 14.2858C12.1182 14.3592 12 14.5432 12 15.0833V16.5833C12 17.1235 12.1182 17.3075 12.1962 17.3808C12.2857 17.465 12.5111 17.5833 13.1083 17.5833H16.475C17.0722 17.5833 17.2977 17.465 17.3871 17.3808C17.4651 17.3075 17.5833 17.1235 17.5833 16.5833V15.0833C17.5833 14.5432 17.4651 14.3592 17.3871 14.2858C17.2977 14.2017 17.0722 14.0833 16.475 14.0833H13.1083C12.5111 14.0833 12.2857 14.2017 12.1962 14.2858Z" fill="#292D32"/>
<path fill-rule="evenodd" clip-rule="evenodd" d="M2.61286 10.1192C2.5349 10.1925 2.41666 10.3765 2.41666 10.9167V16.5833C2.41666 17.1235 2.5349 17.3075 2.61286 17.3808C2.70233 17.465 2.92781 17.5833 3.525 17.5833H6.89166C7.48885 17.5833 7.71433 17.465 7.8038 17.3808C7.88176 17.3075 8 17.1235 8 16.5833V10.9167C8 10.3765 7.88176 10.1925 7.8038 10.1192C7.71433 10.035 7.48885 9.91667 6.89166 9.91667H3.525C2.92781 9.91667 2.70233 10.035 2.61286 10.1192ZM1.58505 9.02666C2.0935 8.54832 2.79718 8.41667 3.525 8.41667H6.89166C7.61948 8.41667 8.32316 8.54832 8.83161 9.02666C9.35157 9.51581 9.5 10.2068 9.5 10.9167V16.5833C9.5 17.2932 9.35157 17.9842 8.83161 18.4733C8.32316 18.9517 7.61948 19.0833 6.89166 19.0833H3.525C2.79718 19.0833 2.0935 18.9517 1.58505 18.4733C1.0651 17.9842 0.916664 17.2932 0.916664 16.5833V10.9167C0.916664 10.2068 1.0651 9.51581 1.58505 9.02666Z" fill="#292D32"/>
<path fill-rule="evenodd" clip-rule="evenodd" d="M2.61286 2.61918C2.5349 2.69252 2.41666 2.87653 2.41666 3.41667V4.91667C2.41666 5.45681 2.5349 5.64081 2.61286 5.71416C2.70233 5.79832 2.92781 5.91667 3.525 5.91667H6.89166C7.48885 5.91667 7.71433 5.79832 7.8038 5.71416C7.88176 5.64081 8 5.45681 8 4.91667V3.41667C8 2.87653 7.88176 2.69252 7.8038 2.61918C7.71433 2.53501 7.48885 2.41667 6.89166 2.41667H3.525C2.92781 2.41667 2.70233 2.53501 2.61286 2.61918ZM1.58505 1.52666C2.0935 1.04832 2.79718 0.916668 3.525 0.916668H6.89166C7.61948 0.916668 8.32316 1.04832 8.83161 1.52666C9.35157 2.01581 9.5 2.70681 9.5 3.41667V4.91667C9.5 5.62653 9.35157 6.31752 8.83161 6.80668C8.32316 7.28501 7.61948 7.41667 6.89166 7.41667H3.525C2.79718 7.41667 2.0935 7.28501 1.58505 6.80668C1.0651 6.31752 0.916664 5.62653 0.916664 4.91667V3.41667C0.916664 2.70681 1.0651 2.01581 1.58505 1.52666Z" fill="#292D32"/>
</svg>
