<svg width="20" height="20" viewBox="0 0 20 20" fill="none" xmlns="http://www.w3.org/2000/svg">
<path fill-rule="evenodd" clip-rule="evenodd" d="M9.825 2.99583C9.52676 2.99583 9.26998 3.04837 9.11483 3.11785L9.11272 3.11879L4.19439 5.30286C3.90372 5.4311 3.73573 5.55926 3.64941 5.65409C3.59773 5.71086 3.58331 5.74557 3.5797 5.75833C3.58331 5.7711 3.59773 5.80581 3.64941 5.86257C3.73573 5.95741 3.90372 6.08557 4.19439 6.21381L4.19605 6.21454L9.11483 8.39882C9.26998 8.46829 9.52676 8.52083 9.825 8.52083C10.1232 8.52083 10.38 8.46829 10.5352 8.39882L10.5373 8.39788L15.4556 6.21381C15.7463 6.08557 15.9143 5.95741 16.0006 5.86257C16.0523 5.80581 16.0667 5.7711 16.0703 5.75833C16.0667 5.74557 16.0523 5.71086 16.0006 5.65409C15.9143 5.55926 15.7463 5.43109 15.4556 5.30286L15.4539 5.30212L10.5373 3.11879L10.5352 3.11785C10.38 3.04837 10.1232 2.99583 9.825 2.99583ZM11.1469 1.74825C10.744 1.56814 10.2638 1.49583 9.825 1.49583C9.38615 1.49583 8.90591 1.56816 8.50296 1.74831C8.50259 1.74848 8.50221 1.74865 8.50183 1.74882L3.58893 3.93048C3.58921 3.93035 3.58865 3.9306 3.58893 3.93048C2.80558 4.27628 2.07916 4.87941 2.07916 5.75833C2.07916 6.63723 2.8047 7.23999 3.58803 7.58579C3.58773 7.58566 3.58833 7.58592 3.58803 7.58579L8.50183 9.76785C8.50219 9.76801 8.50254 9.76817 8.5029 9.76832C8.90585 9.9485 9.38612 10.0208 9.825 10.0208C10.2638 10.0208 10.744 9.94852 11.147 9.76839C11.1474 9.76821 11.1478 9.76803 11.1482 9.76785L16.0611 7.58619C16.0608 7.5863 16.0613 7.58607 16.0611 7.58619C16.8444 7.24039 17.5708 6.63728 17.5708 5.75833C17.5708 4.87938 16.8452 4.2766 16.0618 3.93081C16.0621 3.93092 16.0616 3.9307 16.0618 3.93081L11.1482 1.74882C11.1477 1.74863 11.1473 1.74844 11.1469 1.74825Z" fill="#292D32"/>
<path fill-rule="evenodd" clip-rule="evenodd" d="M2.5 8.41667C2.91421 8.41667 3.25 8.75245 3.25 9.16667C3.25 9.34006 3.32003 9.57715 3.47136 9.80973C3.62267 10.0423 3.8109 10.2022 3.96962 10.2722L3.97146 10.2731L9.62838 12.7891C9.6286 12.7892 9.62816 12.789 9.62838 12.7891C9.87023 12.8959 10.1398 12.8936 10.3667 12.7913L10.3702 12.7897L16.0285 10.2731L16.0304 10.2722C16.1891 10.2022 16.3773 10.0423 16.5286 9.80973C16.68 9.57715 16.75 9.34006 16.75 9.16667C16.75 8.75245 17.0858 8.41667 17.5 8.41667C17.9142 8.41667 18.25 8.75245 18.25 9.16667C18.25 9.69328 18.0575 10.2104 17.7859 10.6278C17.5145 11.0449 17.1198 11.4306 16.6373 11.644C16.637 11.6441 16.6366 11.6443 16.6363 11.6444L10.9833 14.1587C10.9827 14.159 10.982 14.1593 10.9813 14.1596C10.3589 14.4396 9.6456 14.4369 9.02162 14.1609L3.36372 11.6444C3.36337 11.6443 3.36302 11.6441 3.36268 11.644C2.8802 11.4306 2.48547 11.0449 2.21406 10.6278C1.94247 10.2104 1.75 9.69328 1.75 9.16667C1.75 8.75245 2.08579 8.41667 2.5 8.41667Z" fill="#292D32"/>
<path fill-rule="evenodd" clip-rule="evenodd" d="M2.5 12.5833C2.91421 12.5833 3.25 12.9191 3.25 13.3333C3.25 13.8091 3.53128 14.2427 3.97219 14.44C3.97238 14.4401 3.972 14.44 3.97219 14.44L9.62838 16.9558C9.6286 16.9559 9.62816 16.9557 9.62838 16.9558C9.87023 17.0625 10.1398 17.0603 10.3667 16.958L10.3702 16.9564L16.0272 14.4403C16.0274 14.4402 16.0271 14.4404 16.0272 14.4403C16.4682 14.2429 16.75 13.8091 16.75 13.3333C16.75 12.9191 17.0858 12.5833 17.5 12.5833C17.9142 12.5833 18.25 12.9191 18.25 13.3333C18.25 14.4073 17.6149 15.3736 16.6394 15.8097L16.6381 15.8103L10.9833 18.3254C10.9827 18.3257 10.982 18.326 10.9813 18.3263C10.3589 18.6063 9.6456 18.6036 9.02162 18.3276L3.36057 15.8097C2.38514 15.3736 1.75 14.4073 1.75 13.3333C1.75 12.9191 2.08579 12.5833 2.5 12.5833Z" fill="#292D32"/>
</svg>
