<svg width="24" height="24" viewBox="0 0 24 24" fill="none" xmlns="http://www.w3.org/2000/svg">
<path fill-rule="evenodd" clip-rule="evenodd" d="M0 12C0 5.37258 5.37258 0 12 0C18.6274 0 24 5.37258 24 12C24 18.6274 18.6274 24 12 24C5.37258 24 0 18.6274 0 12ZM9.375 7.25C7.88424 7.25 6.66667 8.47222 6.66667 9.95833C6.66667 10.6116 6.90203 11.2114 7.29195 11.6803C7.46851 11.8926 7.43952 12.2079 7.2272 12.3844C7.01488 12.561 6.69962 12.532 6.52306 12.3197C5.99131 11.6802 5.66667 10.8567 5.66667 9.95833C5.66667 7.92112 7.33077 6.25 9.375 6.25H12.2917C14.3295 6.25 16 7.92052 16 9.95833C16 11.9956 14.3359 13.6667 12.2917 13.6667H10.8333C10.5572 13.6667 10.3333 13.4428 10.3333 13.1667C10.3333 12.8905 10.5572 12.6667 10.8333 12.6667H12.2917C13.7824 12.6667 15 11.4445 15 9.95833C15 8.47281 13.7772 7.25 12.2917 7.25H9.375ZM9 14.0417C9 12.5555 10.2176 11.3333 11.7083 11.3333H13.1667C13.4428 11.3333 13.6667 11.1095 13.6667 10.8333C13.6667 10.5572 13.4428 10.3333 13.1667 10.3333H11.7083C9.6641 10.3333 8 12.0044 8 14.0417C8 16.0795 9.67053 17.75 11.7083 17.75H14.625C16.6692 17.75 18.3333 16.0789 18.3333 14.0417C18.3333 13.1433 18.0087 12.3197 17.4769 11.6803C17.3004 11.468 16.9851 11.439 16.7728 11.6156C16.5605 11.7921 16.5315 12.1074 16.7081 12.3197C17.098 12.7886 17.3333 13.3884 17.3333 14.0417C17.3333 15.5278 16.1158 16.75 14.625 16.75H11.7083C10.2228 16.75 9 15.5272 9 14.0417Z" fill="#333639"/>
</svg>
