<svg width="20" height="20" viewBox="0 0 20 20" fill="none" xmlns="http://www.w3.org/2000/svg">
<path fill-rule="evenodd" clip-rule="evenodd" d="M12.9153 1.07377C13.937 0.943111 14.9562 1.36439 15.9723 2.32044L15.9737 2.32175C16.9929 3.28567 17.4754 4.28183 17.4034 5.31167C17.3342 6.30196 16.7612 7.12998 16.1283 7.79858C16.1282 7.7987 16.1285 7.79845 16.1283 7.79858L9.29079 15.0359C9.08537 15.2593 8.81311 15.4448 8.55988 15.5802C8.30287 15.7176 8.0019 15.8373 7.71461 15.8884L7.70962 15.8893L5.02743 16.3474C5.02735 16.3474 5.02751 16.3474 5.02743 16.3474C4.34362 16.4653 3.67831 16.2952 3.20162 15.8432C2.72563 15.3918 2.51993 14.7375 2.59626 14.0505L2.59651 14.0482L2.90645 11.3342C2.94461 11.048 3.04982 10.7436 3.17132 10.483C3.29232 10.2236 3.45955 9.94335 3.6617 9.72816L3.66316 9.72661L10.5048 2.48494C11.138 1.81607 11.9328 1.1994 12.9153 1.07377ZM11.5947 3.51561L4.75497 10.7552C4.75481 10.7553 4.75514 10.755 4.75497 10.7552C4.69878 10.8152 4.61162 10.9436 4.53077 11.117C4.45181 11.2863 4.40709 11.4374 4.39418 11.527L4.08708 14.2162C4.08705 14.2165 4.08701 14.2168 4.08697 14.2172C4.05529 14.5046 4.14531 14.6708 4.2338 14.7548C4.32164 14.8381 4.4898 14.918 4.77257 14.8692L4.77373 14.869L7.45395 14.4112C7.5419 14.3953 7.68998 14.3443 7.85263 14.2573C8.01813 14.1689 8.13512 14.0771 8.18745 14.0197L8.19641 14.0099L15.0382 6.76827C15.5885 6.18693 15.8742 5.67702 15.907 5.20708C15.9371 4.77661 15.7655 4.18964 14.9437 3.4122C14.1268 2.64386 13.5337 2.5069 13.1056 2.56165C12.638 2.62144 12.1448 2.93448 11.5947 3.51561Z" fill="#292D32"/>
<path fill-rule="evenodd" clip-rule="evenodd" d="M9.79289 3.46727C10.2022 3.40351 10.5856 3.6836 10.6494 4.09288C10.9549 6.0535 12.5461 7.55444 14.5252 7.75377C14.9373 7.79528 15.2377 8.16303 15.1962 8.57516C15.1547 8.98729 14.787 9.28773 14.3748 9.24622C11.7206 8.97889 9.57849 6.96317 9.16728 4.32379C9.10352 3.91451 9.38361 3.53104 9.79289 3.46727Z" fill="#292D32"/>
<path fill-rule="evenodd" clip-rule="evenodd" d="M1.75 18.3333C1.75 17.9191 2.08579 17.5833 2.5 17.5833H17.5C17.9142 17.5833 18.25 17.9191 18.25 18.3333C18.25 18.7475 17.9142 19.0833 17.5 19.0833H2.5C2.08579 19.0833 1.75 18.7475 1.75 18.3333Z" fill="#292D32"/>
</svg>
