<svg width="18" height="18" viewBox="0 0 18 18" fill="none" xmlns="http://www.w3.org/2000/svg">
<path fill-rule="evenodd" clip-rule="evenodd" d="M2.325 9C2.325 8.6272 2.6272 8.325 3 8.325H15C15.3728 8.325 15.675 8.6272 15.675 9C15.675 9.37279 15.3728 9.675 15 9.675H3C2.6272 9.675 2.325 9.37279 2.325 9Z" fill="#333639"/>
<path fill-rule="evenodd" clip-rule="evenodd" d="M9 2.325C9.3728 2.325 9.675 2.6272 9.675 3L9.675 15C9.675 15.3728 9.37279 15.675 9 15.675C8.62721 15.675 8.325 15.3728 8.325 15L8.325 3C8.325 2.6272 8.62721 2.325 9 2.325Z" fill="#333639"/>
</svg>
