<svg width="20" height="20" viewBox="0 0 20 20" fill="none" xmlns="http://www.w3.org/2000/svg">
<path fill-rule="evenodd" clip-rule="evenodd" d="M16.2203 3.77577C15.8179 3.3727 14.9507 3.12923 13.4789 3.61985L6.4046 5.97793C6.40451 5.97796 6.40469 5.9779 6.4046 5.97793C5.26306 6.3598 4.46526 6.78364 3.96789 7.19467C3.46787 7.60788 3.34793 7.93864 3.34793 8.15312C3.34793 8.36738 3.46764 8.69749 3.96728 9.10952C4.46445 9.51951 5.26185 9.94182 6.40348 10.3217L8.50385 11.0218C8.72781 11.0965 8.90354 11.2722 8.97819 11.4962L9.67819 13.5962C10.058 14.7376 10.4809 15.5352 10.8914 16.0324C11.3039 16.5319 11.6348 16.6521 11.85 16.6521C12.0652 16.6521 12.3962 16.5319 12.8087 16.0324C13.2192 15.5352 13.6419 14.7379 14.0217 13.5965L16.3796 6.52284C16.3797 6.5226 16.3795 6.52309 16.3796 6.52284C16.8662 5.0508 16.6237 4.17973 16.2203 3.77577ZM17.2818 2.7159C18.2721 3.70771 18.3668 5.29131 17.8038 6.99382L17.8032 6.9955L15.445 14.0701C15.0331 15.3079 14.5371 16.295 13.9653 16.9874C13.3955 17.6774 12.6807 18.1521 11.85 18.1521C11.0194 18.1521 10.3045 17.6774 9.73472 16.9874C9.16292 16.295 8.66691 15.3079 8.25504 14.0701L7.67375 12.3263L5.92988 11.745C4.69234 11.3332 3.70537 10.8378 3.01295 10.2668C2.32302 9.69783 1.84793 8.98366 1.84793 8.15312C1.84793 7.32282 2.32278 6.60827 3.01235 6.0384C3.70452 5.46639 4.69128 4.96934 5.92876 4.5554L13.0045 2.19682C14.7077 1.6291 16.2905 1.72313 17.2818 2.7159Z" fill="#292D32"/>
<path fill-rule="evenodd" clip-rule="evenodd" d="M11.9379 7.85227C12.2312 8.14475 12.2319 8.61962 11.9394 8.91292L8.95609 11.9046C8.6636 12.1979 8.18873 12.1986 7.89543 11.9061C7.60213 11.6136 7.60146 11.1387 7.89395 10.8454L10.8773 7.85374C11.1698 7.56044 11.6446 7.55978 11.9379 7.85227Z" fill="#292D32"/>
</svg>
