<svg width="20" height="20" viewBox="0 0 20 20" fill="none" xmlns="http://www.w3.org/2000/svg">
<path fill-rule="evenodd" clip-rule="evenodd" d="M10 5.94167C8.89903 5.94167 8.01666 6.82939 8.01666 7.925C8.01666 8.97946 8.83806 9.8396 9.88068 9.8984C9.95826 9.89249 10.0406 9.89195 10.1215 9.89828C11.1586 9.83853 11.9763 8.98255 11.9833 7.92288C11.9822 6.82973 11.0934 5.94167 10 5.94167ZM6.51666 7.925C6.51666 6.00394 8.06763 4.44167 10 4.44167C11.9225 4.44167 13.4833 6.00245 13.4833 7.925V7.92924H13.4833C13.4727 9.8026 11.9988 11.3357 10.1255 11.3996C10.0847 11.401 10.0439 11.399 10.0034 11.3937C10.0033 11.3937 10.0032 11.3937 10.0031 11.3937L9.9962 11.394C9.99472 11.394 9.99372 11.3941 9.99326 11.3942C9.993 11.3942 9.99291 11.3942 9.99302 11.3942C9.9537 11.3991 9.91405 11.4009 9.87444 11.3996C8.00494 11.3358 6.51666 9.80546 6.51666 7.925Z" fill="#292D32"/>
<path fill-rule="evenodd" clip-rule="evenodd" d="M6.27517 14.6235C5.68879 15.0185 5.35596 15.4598 5.2104 15.8745C6.51761 16.945 8.18047 17.5833 10 17.5833C11.8195 17.5833 13.4824 16.9449 14.7896 15.8745C14.6439 15.4596 14.3108 15.018 13.7238 14.6228C12.7402 13.965 11.3946 13.6125 10.0062 13.6125C8.61864 13.6125 7.2681 13.9646 6.27517 14.6235ZM10.0062 12.1125C11.6217 12.1125 13.2757 12.5182 14.5587 13.3767L14.5604 13.3778C15.5847 14.067 16.2498 15.0121 16.3625 16.0707C16.3877 16.3075 16.2988 16.5423 16.1232 16.7031C14.5071 18.183 12.3616 19.0833 10 19.0833C7.63844 19.0833 5.4929 18.183 3.87682 16.7031C3.70115 16.5423 3.61234 16.3075 3.63754 16.0707C3.75015 15.0121 4.41529 14.067 5.43962 13.3778L5.44335 13.3753L5.44336 13.3753C6.73359 12.5182 8.39056 12.1125 10.0062 12.1125Z" fill="#292D32"/>
<path fill-rule="evenodd" clip-rule="evenodd" d="M10 2.41667C5.81184 2.41667 2.41666 5.81184 2.41666 10C2.41666 14.1882 5.81184 17.5833 10 17.5833C14.1882 17.5833 17.5833 14.1882 17.5833 10C17.5833 5.81184 14.1882 2.41667 10 2.41667ZM0.916664 10C0.916664 4.98341 4.98341 0.916668 10 0.916668C15.0166 0.916668 19.0833 4.98341 19.0833 10C19.0833 15.0166 15.0166 19.0833 10 19.0833C4.98341 19.0833 0.916664 15.0166 0.916664 10Z" fill="#292D32"/>
</svg>
