<svg width="20" height="20" viewBox="0 0 20 20" fill="none" xmlns="http://www.w3.org/2000/svg">
<path fill-rule="evenodd" clip-rule="evenodd" d="M10 2.41667C8.11303 2.41667 6.58334 3.94636 6.58334 5.83333C6.58334 7.72031 8.11303 9.25 10 9.25C11.887 9.25 13.4167 7.72031 13.4167 5.83333C13.4167 3.94636 11.887 2.41667 10 2.41667ZM5.08334 5.83333C5.08334 3.11793 7.2846 0.916668 10 0.916668C12.7154 0.916668 14.9167 3.11793 14.9167 5.83333C14.9167 8.54873 12.7154 10.75 10 10.75C7.2846 10.75 5.08334 8.54873 5.08334 5.83333Z" fill="#292D32"/>
<path fill-rule="evenodd" clip-rule="evenodd" d="M2.09167 18.3333C2.09167 14.5575 5.78713 11.75 10 11.75C14.2129 11.75 17.9083 14.5575 17.9083 18.3333C17.9083 18.7475 17.5725 19.0833 17.1583 19.0833C16.7441 19.0833 16.4083 18.7475 16.4083 18.3333C16.4083 15.6592 13.6871 13.25 10 13.25C6.31288 13.25 3.59167 15.6592 3.59167 18.3333C3.59167 18.7475 3.25588 19.0833 2.84167 19.0833C2.42746 19.0833 2.09167 18.7475 2.09167 18.3333Z" fill="#292D32"/>
</svg>
