<svg width="20" height="20" viewBox="0 0 20 20" fill="none" xmlns="http://www.w3.org/2000/svg">
<path fill-rule="evenodd" clip-rule="evenodd" d="M13.2197 3.21967C14.2042 2.23511 15.7958 2.23511 16.7803 3.21967C17.7649 4.20423 17.7649 5.79577 16.7803 6.78033L5.947 17.6137C4.96244 18.5982 3.3709 18.5982 2.38634 17.6137C1.40178 16.6291 1.40178 15.0376 2.38634 14.053L13.2197 3.21967ZM15.7197 4.28033C15.3209 3.88156 14.6791 3.88156 14.2803 4.28033L3.447 15.1137C3.04823 15.5124 3.04823 16.1542 3.447 16.553C3.84577 16.9518 4.48756 16.9518 4.88634 16.553L15.7197 5.71967C16.1184 5.3209 16.1184 4.6791 15.7197 4.28033Z" fill="#292D32"/>
<path fill-rule="evenodd" clip-rule="evenodd" d="M11.978 4.46134C12.2709 4.16844 12.7458 4.16844 13.0387 4.46134L15.5387 6.96134C15.8316 7.25423 15.8316 7.7291 15.5387 8.022C15.2458 8.31489 14.7709 8.31489 14.478 8.022L11.978 5.522C11.6851 5.2291 11.6851 4.75423 11.978 4.46134Z" fill="#292D32"/>
<path fill-rule="evenodd" clip-rule="evenodd" d="M5.47979 1.31311C5.60908 1.18383 5.79863 1.13542 5.97408 1.18688L7.08334 1.51227L8.1926 1.18688C8.36805 1.13542 8.5576 1.18383 8.68689 1.31311C8.81618 1.4424 8.86459 1.63195 8.81313 1.8074L8.48774 2.91667L8.81313 4.02593C8.86459 4.20138 8.81618 4.39093 8.68689 4.52022C8.5576 4.64951 8.36805 4.69792 8.1926 4.64645L7.08334 4.32107L5.97408 4.64645C5.79863 4.69792 5.60908 4.64951 5.47979 4.52022C5.3505 4.39093 5.30209 4.20138 5.35356 4.02593L5.67894 2.91667L5.35356 1.8074C5.30209 1.63195 5.3505 1.4424 5.47979 1.31311ZM6.5707 2.40403L6.67979 2.77593C6.70675 2.86782 6.70675 2.96552 6.67979 3.0574L6.5707 3.42931L6.9426 3.32022C7.03449 3.29326 7.13219 3.29326 7.22408 3.32022L7.59598 3.42931L7.48689 3.0574C7.45994 2.96552 7.45994 2.86782 7.48689 2.77593L7.59598 2.40403L7.22408 2.51312C7.13219 2.54007 7.03449 2.54007 6.9426 2.51312L6.5707 2.40403Z" fill="#292D32"/>
<path fill-rule="evenodd" clip-rule="evenodd" d="M2.14644 6.31311C2.27573 6.18382 2.46528 6.13542 2.64073 6.18688L3.75 6.51227L4.85926 6.18688C5.03471 6.13542 5.22426 6.18382 5.35355 6.31311C5.48284 6.4424 5.53125 6.63195 5.47978 6.8074L5.1544 7.91667L5.47978 9.02593C5.53125 9.20138 5.48284 9.39093 5.35355 9.52022C5.22426 9.64951 5.03471 9.69792 4.85926 9.64645L3.75 9.32107L2.64073 9.64645C2.46528 9.69792 2.27573 9.64951 2.14644 9.52022C2.01715 9.39093 1.96875 9.20138 2.02021 9.02593L2.3456 7.91667L2.02021 6.8074C1.96875 6.63195 2.01715 6.4424 2.14644 6.31311ZM3.23736 7.40403L3.34645 7.77593C3.3734 7.86782 3.3734 7.96551 3.34645 8.0574L3.23736 8.42931L3.60926 8.32022C3.70115 8.29326 3.79885 8.29326 3.89073 8.32022L4.26264 8.42931L4.15355 8.0574C4.12659 7.96551 4.12659 7.86782 4.15355 7.77593L4.26264 7.40403L3.89073 7.51312C3.79885 7.54007 3.70115 7.54007 3.60926 7.51312L3.23736 7.40403Z" fill="#292D32"/>
<path fill-rule="evenodd" clip-rule="evenodd" d="M14.6464 10.4798C14.7757 10.3505 14.9653 10.3021 15.1407 10.3535L16.25 10.6789L17.3593 10.3535C17.5347 10.3021 17.7243 10.3505 17.8536 10.4798C17.9828 10.6091 18.0312 10.7986 17.9798 10.9741L17.6544 12.0833L17.9798 13.1926C18.0312 13.368 17.9828 13.5576 17.8536 13.6869C17.7243 13.8162 17.5347 13.8646 17.3593 13.8131L16.25 13.4877L15.1407 13.8131C14.9653 13.8646 14.7757 13.8162 14.6464 13.6869C14.5172 13.5576 14.4687 13.368 14.5202 13.1926L14.8456 12.0833L14.5202 10.9741C14.4687 10.7986 14.5172 10.6091 14.6464 10.4798ZM15.7374 11.5707L15.8464 11.9426C15.8734 12.0345 15.8734 12.1322 15.8464 12.2241L15.7374 12.596L16.1093 12.4869C16.2011 12.4599 16.2988 12.4599 16.3907 12.4869L16.7626 12.596L16.6535 12.2241C16.6266 12.1322 16.6266 12.0345 16.6535 11.9426L16.7626 11.5707L16.3907 11.6798C16.2988 11.7067 16.2011 11.7067 16.1093 11.6798L15.7374 11.5707Z" fill="#292D32"/>
</svg>
