<svg width="139" height="69" viewBox="0 0 139 69" fill="none" xmlns="http://www.w3.org/2000/svg">
<rect x="0.5" y="0.5" width="138" height="68" rx="9.66" fill="white" stroke="#EFEFF5"/>
<rect x="53" y="61" width="24" height="0.63" rx="0.315" fill="#333639" fill-opacity="0.6"/>
<rect x="81" y="61" width="14" height="0.63" rx="0.315" fill="#333639" fill-opacity="0.6"/>
<path opacity="0.13" fill-rule="evenodd" clip-rule="evenodd" d="M11.08 6C8.27439 6 6 8.27439 6 11.08V49.242C6 52.0476 8.2744 54.322 11.08 54.322H13.0132C13.3691 45.2475 20.8382 38 30 38C39.1617 38 46.6308 45.2475 46.9867 54.322H127.92C130.726 54.322 133 52.0476 133 49.242V11.08C133 8.27439 130.726 6 127.92 6H11.08Z" fill="#1877F2"/>
<path d="M77 30C77 25.6 73.4 22 69 22C64.6 22 61 25.6 61 30C61 34 63.9 37.3 67.7 37.9V32.3H65.7V30H67.7V28.2C67.7 26.2 68.9 25.1 70.7 25.1C71.6 25.1 72.5 25.3 72.5 25.3V27.3H71.5C70.5 27.3 70.2 27.9 70.2 28.5V30H72.4L72 32.3H70.1V38C74.1 37.4 77 34 77 30Z" fill="#1877F2"/>
<path fill-rule="evenodd" clip-rule="evenodd" d="M26.6563 52.0412C26.6563 50.1946 28.1533 48.6976 29.9998 48.6976C31.8464 48.6976 33.3434 50.1946 33.3434 52.0412C33.3434 53.8786 31.8613 55.3698 30.0273 55.3846C30.0182 55.3846 30.0091 55.3846 29.9999 55.3846C29.9907 55.3846 29.9816 55.3846 29.9724 55.3846C28.1385 55.3699 26.6563 53.8786 26.6563 52.0412ZM28.2355 55.6025C26.9262 54.9527 26.0263 53.602 26.0263 52.0412C26.0263 49.8466 27.8053 48.0676 29.9998 48.0676C32.1944 48.0676 33.9734 49.8466 33.9734 52.0412C33.9734 53.602 33.0735 54.9526 31.7642 55.6025C33.9576 56.1444 35.9575 57.6637 37.0721 59.7866C37.1529 59.9407 37.0936 60.1311 36.9396 60.2119C36.7855 60.2928 36.5951 60.2335 36.5142 60.0795C35.2145 57.6037 32.6153 56.0261 30.0284 56.0146C30.0189 56.0147 30.0094 56.0147 29.9998 56.0147C29.9903 56.0147 29.9808 56.0147 29.9713 56.0146C27.3845 56.0262 24.7853 57.6037 23.4856 60.0795C23.4047 60.2335 23.2143 60.2928 23.0602 60.2119C22.9062 60.1311 22.8469 59.9407 22.9278 59.7866C24.0423 57.6637 26.0422 56.1445 28.2355 55.6025Z" fill="#333639" fill-opacity="0.6"/>
</svg>
