<svg width="106" height="122" viewBox="0 0 106 122" fill="none" xmlns="http://www.w3.org/2000/svg">
<rect x="0.5" y="0.5" width="105" height="121" rx="9.66" fill="white" stroke="#EFEFF5"/>
<rect opacity="0.11" x="6" y="6" width="94" height="94" rx="5.08" fill="#1877F2"/>
<path d="M61 53C61 48.6 57.4 45 53 45C48.6 45 45 48.6 45 53C45 57 47.9 60.3 51.7 60.9V55.3H49.7V53H51.7V51.2C51.7 49.2 52.9 48.1 54.7 48.1C55.6 48.1 56.5 48.3 56.5 48.3V50.3H55.5C54.5 50.3 54.2 50.9 54.2 51.5V53H56.4L56 55.3H54.1V61C58.1 60.4 61 57 61 53Z" fill="#1877F2"/>
<path d="M15.4828 112.12V108.156H16.2009V111.518H17.9469V112.12H15.4828ZM18.5392 112.12V109.147H19.2399V112.12H18.5392ZM18.8915 108.725C18.7805 108.725 18.685 108.688 18.605 108.615C18.525 108.54 18.485 108.45 18.485 108.346C18.485 108.24 18.525 108.15 18.605 108.077C18.685 108.002 18.7805 107.965 18.8915 107.965C19.0037 107.965 19.0992 108.002 19.178 108.077C19.258 108.15 19.298 108.24 19.298 108.346C19.298 108.45 19.258 108.54 19.178 108.615C19.0992 108.688 19.0037 108.725 18.8915 108.725ZM20.5992 111.187L20.5973 110.341H20.7095L21.778 109.147H22.5968L21.2825 110.611H21.1373L20.5992 111.187ZM19.9604 112.12V108.156H20.6611V112.12H19.9604ZM21.8264 112.12L20.8586 110.767L21.3309 110.274L22.6645 112.12H21.8264ZM24.2576 112.178C23.9595 112.178 23.702 112.116 23.4853 111.993C23.2698 111.867 23.1039 111.691 22.9878 111.462C22.8717 111.233 22.8136 110.962 22.8136 110.651C22.8136 110.345 22.8717 110.077 22.9878 109.846C23.1052 109.614 23.2691 109.433 23.4794 109.304C23.6898 109.174 23.9369 109.108 24.2208 109.108C24.404 109.108 24.577 109.138 24.7396 109.198C24.9034 109.256 25.048 109.346 25.1731 109.469C25.2996 109.591 25.399 109.747 25.4712 109.937C25.5435 110.125 25.5796 110.35 25.5796 110.611V110.825H23.1426V110.353H24.908C24.9067 110.219 24.8776 110.1 24.8209 109.995C24.7641 109.889 24.6847 109.806 24.5828 109.745C24.4821 109.685 24.3647 109.654 24.2305 109.654C24.0872 109.654 23.9614 109.689 23.853 109.759C23.7446 109.827 23.6601 109.918 23.5995 110.03C23.5401 110.141 23.5098 110.263 23.5085 110.396V110.808C23.5085 110.981 23.5401 111.129 23.6033 111.253C23.6666 111.376 23.755 111.47 23.8685 111.536C23.9821 111.6 24.115 111.633 24.2673 111.633C24.3692 111.633 24.4615 111.618 24.5441 111.59C24.6266 111.56 24.6983 111.517 24.7589 111.46C24.8196 111.404 24.8654 111.333 24.8963 111.249L25.5506 111.323C25.5093 111.496 25.4306 111.647 25.3144 111.776C25.1996 111.904 25.0525 112.003 24.8731 112.074C24.6937 112.144 24.4886 112.178 24.2576 112.178Z" fill="#333639" fill-opacity="0.6"/>
<path d="M7.92271 108.831H6.27637V112.885H7.92271V108.831Z" stroke="#333639" stroke-opacity="0.6" stroke-width="0.63" stroke-linejoin="round"/>
<path d="M12.8044 109.642C12.9672 109.541 13.0772 109.357 13.0772 109.15C13.0772 108.826 12.8188 108.565 12.4981 108.565H10.7274C10.7465 108.193 10.7657 107.473 10.7274 106.893C10.6891 106.313 9.82284 106.357 9.82284 106.357C9.9377 107.483 9.20546 108.691 8.54023 109.188C8.40622 109.29 7.92285 109.435 7.92285 109.435V112.687H11.8377C12.1583 112.687 12.4168 112.426 12.4168 112.102C12.4168 111.942 12.3546 111.797 12.2493 111.691C12.5316 111.653 12.747 111.411 12.747 111.116C12.747 110.957 12.6848 110.812 12.5795 110.705C12.8619 110.667 13.0772 110.425 13.0772 110.13C13.0772 109.923 12.9672 109.739 12.8044 109.638V109.642Z" stroke="#333639" stroke-opacity="0.6" stroke-width="0.63" stroke-linejoin="round"/>
<path d="M45.5645 108.973H44.8405C44.8199 108.854 44.7818 108.749 44.7263 108.658C44.6708 108.565 44.6018 108.486 44.5192 108.422C44.4366 108.357 44.3424 108.309 44.2366 108.276C44.1321 108.243 44.0192 108.226 43.8979 108.226C43.6824 108.226 43.4914 108.28 43.3249 108.389C43.1585 108.496 43.0281 108.653 42.9339 108.861C42.8397 109.067 42.7926 109.32 42.7926 109.618C42.7926 109.921 42.8397 110.177 42.9339 110.384C43.0294 110.591 43.1597 110.747 43.3249 110.853C43.4914 110.957 43.6817 111.009 43.8959 111.009C44.0147 111.009 44.1256 110.994 44.2289 110.963C44.3334 110.931 44.427 110.884 44.5095 110.822C44.5934 110.76 44.6637 110.684 44.7205 110.593C44.7786 110.503 44.8186 110.4 44.8405 110.284L45.5645 110.287C45.5374 110.476 45.4787 110.653 45.3883 110.818C45.2993 110.983 45.1825 111.129 45.038 111.255C44.8934 111.38 44.7244 111.479 44.5308 111.55C44.3373 111.619 44.1224 111.654 43.8863 111.654C43.5378 111.654 43.2268 111.573 42.9533 111.412C42.6797 111.251 42.4642 111.018 42.3068 110.713C42.1493 110.409 42.0706 110.044 42.0706 109.618C42.0706 109.191 42.15 108.825 42.3087 108.522C42.4674 108.218 42.6836 107.985 42.9571 107.823C43.2307 107.662 43.5404 107.581 43.8863 107.581C44.1069 107.581 44.3121 107.612 44.5018 107.674C44.6915 107.736 44.8605 107.827 45.0089 107.947C45.1573 108.066 45.2793 108.212 45.3748 108.385C45.4716 108.556 45.5348 108.753 45.5645 108.973ZM47.488 111.658C47.1977 111.658 46.946 111.594 46.7331 111.466C46.5202 111.339 46.355 111.16 46.2376 110.93C46.1215 110.7 46.0634 110.432 46.0634 110.125C46.0634 109.818 46.1215 109.549 46.2376 109.318C46.355 109.087 46.5202 108.907 46.7331 108.78C46.946 108.652 47.1977 108.588 47.488 108.588C47.7784 108.588 48.03 108.652 48.2429 108.78C48.4558 108.907 48.6204 109.087 48.7365 109.318C48.8539 109.549 48.9127 109.818 48.9127 110.125C48.9127 110.432 48.8539 110.7 48.7365 110.93C48.6204 111.16 48.4558 111.339 48.2429 111.466C48.03 111.594 47.7784 111.658 47.488 111.658ZM47.4919 111.097C47.6493 111.097 47.7809 111.053 47.8868 110.967C47.9926 110.879 48.0713 110.762 48.1229 110.615C48.1758 110.467 48.2023 110.304 48.2023 110.123C48.2023 109.941 48.1758 109.776 48.1229 109.629C48.0713 109.481 47.9926 109.363 47.8868 109.275C47.7809 109.187 47.6493 109.144 47.4919 109.144C47.3306 109.144 47.1964 109.187 47.0893 109.275C46.9835 109.363 46.9041 109.481 46.8512 109.629C46.7996 109.776 46.7738 109.941 46.7738 110.123C46.7738 110.304 46.7996 110.467 46.8512 110.615C46.9041 110.762 46.9835 110.879 47.0893 110.967C47.1964 111.053 47.3306 111.097 47.4919 111.097ZM49.5074 111.6V108.627H50.1771V109.132H50.212C50.2739 108.962 50.3765 108.829 50.5197 108.733C50.663 108.636 50.834 108.588 51.0327 108.588C51.234 108.588 51.4037 108.637 51.5418 108.735C51.6811 108.832 51.7792 108.964 51.836 109.132H51.8669C51.9328 108.967 52.0437 108.835 52.1999 108.737C52.3573 108.638 52.5438 108.588 52.7593 108.588C53.0328 108.588 53.2561 108.674 53.429 108.847C53.6019 109.02 53.6884 109.273 53.6884 109.604V111.6H52.9857V109.713C52.9857 109.528 52.9367 109.393 52.8386 109.308C52.7406 109.222 52.6206 109.178 52.4786 109.178C52.3096 109.178 52.1773 109.231 52.0818 109.337C51.9876 109.442 51.9405 109.578 51.9405 109.746V111.6H51.2533V109.684C51.2533 109.53 51.2069 109.407 51.114 109.316C51.0224 109.224 50.9023 109.178 50.7539 109.178C50.6533 109.178 50.5617 109.204 50.4791 109.256C50.3965 109.306 50.3307 109.378 50.2816 109.471C50.2326 109.562 50.2081 109.669 50.2081 109.792V111.6H49.5074ZM54.3993 111.6V108.627H55.069V109.132H55.1038C55.1658 108.962 55.2684 108.829 55.4116 108.733C55.5548 108.636 55.7258 108.588 55.9245 108.588C56.1259 108.588 56.2955 108.637 56.4336 108.735C56.573 108.832 56.6711 108.964 56.7278 109.132H56.7588C56.8246 108.967 56.9356 108.835 57.0917 108.737C57.2492 108.638 57.4356 108.588 57.6511 108.588C57.9247 108.588 58.148 108.674 58.3209 108.847C58.4938 109.02 58.5803 109.273 58.5803 109.604V111.6H57.8776V109.713C57.8776 109.528 57.8286 109.393 57.7305 109.308C57.6324 109.222 57.5124 109.178 57.3705 109.178C57.2014 109.178 57.0692 109.231 56.9737 109.337C56.8795 109.442 56.8324 109.578 56.8324 109.746V111.6H56.1452V109.684C56.1452 109.53 56.0988 109.407 56.0058 109.316C55.9142 109.224 55.7942 109.178 55.6458 109.178C55.5452 109.178 55.4535 109.204 55.371 109.256C55.2884 109.306 55.2226 109.378 55.1735 109.471C55.1245 109.562 55.1 109.669 55.1 109.792V111.6H54.3993ZM60.6074 111.658C60.3093 111.658 60.0518 111.596 59.835 111.472C59.6195 111.347 59.4537 111.17 59.3376 110.942C59.2214 110.712 59.1634 110.442 59.1634 110.131C59.1634 109.825 59.2214 109.556 59.3376 109.325C59.455 109.093 59.6189 108.913 59.8292 108.783C60.0396 108.653 60.2867 108.588 60.5706 108.588C60.7538 108.588 60.9267 108.618 61.0893 108.677C61.2532 108.735 61.3978 108.825 61.5229 108.948C61.6494 109.071 61.7488 109.227 61.821 109.416C61.8933 109.605 61.9294 109.829 61.9294 110.09V110.305H59.4924V109.833H61.2577C61.2565 109.698 61.2274 109.579 61.1706 109.475C61.1139 109.369 61.0345 109.285 60.9326 109.225C60.8319 109.164 60.7145 109.134 60.5803 109.134C60.437 109.134 60.3112 109.169 60.2028 109.238C60.0944 109.307 60.0099 109.397 59.9492 109.509C59.8899 109.62 59.8596 109.742 59.8583 109.875V110.287C59.8583 110.46 59.8899 110.609 59.9531 110.733C60.0163 110.855 60.1047 110.949 60.2183 111.015C60.3319 111.08 60.4648 111.112 60.617 111.112C60.719 111.112 60.8113 111.098 60.8938 111.069C60.9764 111.04 61.048 110.997 61.1087 110.94C61.1693 110.883 61.2152 110.813 61.2461 110.729L61.9004 110.802C61.8591 110.975 61.7804 111.126 61.6642 111.255C61.5494 111.383 61.4023 111.482 61.2229 111.553C61.0435 111.623 60.8384 111.658 60.6074 111.658ZM63.2229 109.858V111.6H62.5222V108.627H63.1919V109.132H63.2268C63.2952 108.965 63.4042 108.833 63.5539 108.735C63.7049 108.637 63.8914 108.588 64.1133 108.588C64.3185 108.588 64.4972 108.632 64.6495 108.72C64.803 108.807 64.9218 108.934 65.0056 109.101C65.0908 109.267 65.1328 109.469 65.1315 109.707V111.6H64.4308V109.815C64.4308 109.616 64.3791 109.461 64.2759 109.349C64.174 109.236 64.0327 109.18 63.852 109.18C63.7294 109.18 63.6204 109.207 63.5249 109.262C63.4307 109.314 63.3565 109.391 63.3023 109.492C63.2494 109.593 63.2229 109.715 63.2229 109.858ZM67.3284 108.627V109.169H65.6192V108.627H67.3284ZM66.0412 107.914H66.7419V110.706C66.7419 110.8 66.7561 110.872 66.7845 110.922C66.8142 110.971 66.8529 111.005 66.9006 111.023C66.9484 111.041 67.0013 111.05 67.0594 111.05C67.1032 111.05 67.1432 111.047 67.1794 111.04C67.2168 111.034 67.2452 111.028 67.2645 111.023L67.3826 111.571C67.3452 111.584 67.2916 111.598 67.222 111.613C67.1536 111.629 67.0697 111.638 66.9703 111.641C66.7948 111.646 66.6368 111.619 66.4961 111.561C66.3554 111.502 66.2438 111.41 66.1612 111.286C66.0799 111.162 66.0399 111.008 66.0412 110.822V107.914Z" fill="#333639" fill-opacity="0.6"/>
<path d="M39.7751 108.881V110.702C39.7751 111.388 39.2247 111.944 38.5451 111.944H35.5731C35.2763 111.944 34.994 112.065 34.7834 112.273L34.5585 112.505C34.4292 112.635 34.2139 112.543 34.2139 112.36V108.876C34.2139 108.19 34.7642 107.634 35.4438 107.634H38.5499C39.2295 107.634 39.7798 108.19 39.7798 108.876L39.7751 108.881Z" stroke="#333639" stroke-opacity="0.6" stroke-width="0.63" stroke-miterlimit="10"/>
<path d="M86.5454 108.726C86.5273 108.557 86.4512 108.425 86.317 108.331C86.1841 108.237 86.0111 108.189 85.7982 108.189C85.6485 108.189 85.5201 108.212 85.413 108.257C85.3059 108.302 85.224 108.364 85.1672 108.441C85.1104 108.519 85.0814 108.607 85.0801 108.706C85.0801 108.789 85.0988 108.861 85.1362 108.921C85.1749 108.982 85.2272 109.033 85.293 109.076C85.3588 109.117 85.4317 109.152 85.5117 109.181C85.5917 109.209 85.6724 109.233 85.7537 109.252L86.1253 109.345C86.275 109.38 86.4189 109.427 86.557 109.486C86.6964 109.546 86.8209 109.621 86.9306 109.711C87.0416 109.801 87.1293 109.91 87.1938 110.038C87.2583 110.166 87.2906 110.315 87.2906 110.487C87.2906 110.719 87.2312 110.924 87.1125 111.101C86.9938 111.276 86.8222 111.414 86.5976 111.513C86.3744 111.611 86.1041 111.66 85.7866 111.66C85.4782 111.66 85.2104 111.612 84.9833 111.517C84.7575 111.421 84.5807 111.282 84.4529 111.099C84.3265 110.916 84.2581 110.692 84.2478 110.429H84.9543C84.9646 110.567 85.0072 110.682 85.082 110.774C85.1569 110.865 85.2543 110.934 85.3743 110.979C85.4956 111.024 85.6311 111.047 85.7808 111.047C85.9369 111.047 86.0737 111.023 86.1912 110.977C86.3099 110.929 86.4028 110.863 86.4699 110.779C86.537 110.694 86.5712 110.595 86.5725 110.481C86.5712 110.378 86.5409 110.293 86.4815 110.226C86.4221 110.157 86.3389 110.101 86.2318 110.055C86.126 110.009 86.0021 109.968 85.8602 109.932L85.4092 109.815C85.0827 109.732 84.8246 109.604 84.6349 109.434C84.4465 109.262 84.3523 109.035 84.3523 108.751C84.3523 108.517 84.4155 108.313 84.542 108.137C84.6697 107.962 84.8433 107.826 85.0627 107.729C85.282 107.631 85.5305 107.582 85.8079 107.582C86.0892 107.582 86.3357 107.631 86.5473 107.729C86.7602 107.826 86.9273 107.96 87.0486 108.133C87.1699 108.305 87.2325 108.502 87.2364 108.726H86.5454ZM88.6006 109.858V111.6H87.8998V107.636H88.5851V109.132H88.6199C88.6896 108.964 88.7973 108.832 88.9432 108.735C89.0903 108.637 89.2774 108.588 89.5045 108.588C89.711 108.588 89.891 108.631 90.0445 108.718C90.1981 108.804 90.3168 108.931 90.4007 109.097C90.4859 109.264 90.5285 109.467 90.5285 109.707V111.6H89.8278V109.815C89.8278 109.615 89.7761 109.46 89.6729 109.349C89.571 109.237 89.4277 109.181 89.2432 109.181C89.1193 109.181 89.0083 109.208 88.9103 109.262C88.8135 109.315 88.7373 109.392 88.6819 109.492C88.6277 109.593 88.6006 109.715 88.6006 109.858ZM92.0983 111.66C91.9099 111.66 91.7402 111.627 91.5892 111.559C91.4395 111.491 91.3208 111.39 91.233 111.257C91.1466 111.125 91.1033 110.961 91.1033 110.766C91.1033 110.598 91.1343 110.459 91.1963 110.35C91.2582 110.24 91.3427 110.152 91.4498 110.086C91.5569 110.021 91.6776 109.971 91.8118 109.937C91.9473 109.903 92.0873 109.877 92.2318 109.862C92.406 109.844 92.5473 109.828 92.6557 109.813C92.7641 109.798 92.8429 109.775 92.8919 109.744C92.9422 109.712 92.9674 109.662 92.9674 109.595V109.583C92.9674 109.437 92.9242 109.324 92.8377 109.244C92.7512 109.164 92.6267 109.124 92.4641 109.124C92.2925 109.124 92.1563 109.162 92.0557 109.237C91.9563 109.312 91.8892 109.4 91.8544 109.502L91.2001 109.409C91.2517 109.228 91.3369 109.077 91.4556 108.956C91.5744 108.833 91.7195 108.742 91.8912 108.681C92.0628 108.619 92.2525 108.588 92.4602 108.588C92.6035 108.588 92.7461 108.605 92.888 108.639C93.03 108.672 93.1597 108.728 93.2771 108.805C93.3945 108.881 93.4887 108.985 93.5597 109.117C93.632 109.248 93.6681 109.413 93.6681 109.61V111.6H92.9945V111.192H92.9713C92.9287 111.274 92.8687 111.352 92.7912 111.424C92.7151 111.495 92.619 111.552 92.5028 111.596C92.388 111.639 92.2531 111.66 92.0983 111.66ZM92.2802 111.145C92.4209 111.145 92.5428 111.117 92.6461 111.062C92.7493 111.005 92.8287 110.93 92.8841 110.837C92.9409 110.745 92.9693 110.643 92.9693 110.534V110.183C92.9474 110.201 92.91 110.218 92.857 110.234C92.8054 110.249 92.7474 110.263 92.6828 110.274C92.6183 110.286 92.5544 110.296 92.4912 110.305C92.428 110.314 92.3731 110.322 92.3267 110.328C92.2222 110.343 92.1286 110.366 92.046 110.398C91.9634 110.43 91.8983 110.475 91.8505 110.534C91.8028 110.59 91.7789 110.664 91.7789 110.754C91.7789 110.883 91.826 110.981 91.9202 111.047C92.0144 111.112 92.1344 111.145 92.2802 111.145ZM94.3727 111.6V108.627H95.0521V109.122H95.083C95.1372 108.951 95.2302 108.819 95.3618 108.726C95.4947 108.631 95.6463 108.584 95.8167 108.584C95.8554 108.584 95.8986 108.586 95.9463 108.59C95.9954 108.593 96.036 108.597 96.0683 108.604V109.248C96.0386 109.238 95.9915 109.229 95.927 109.221C95.8638 109.212 95.8025 109.208 95.7431 109.208C95.6153 109.208 95.5005 109.235 95.3986 109.291C95.2979 109.345 95.2185 109.421 95.1605 109.517C95.1024 109.614 95.0734 109.726 95.0734 109.852V111.6H94.3727ZM97.7276 111.658C97.4295 111.658 97.1721 111.596 96.9553 111.472C96.7398 111.347 96.574 111.17 96.4578 110.942C96.3417 110.712 96.2836 110.442 96.2836 110.131C96.2836 109.825 96.3417 109.557 96.4578 109.326C96.5753 109.093 96.7392 108.913 96.9495 108.784C97.1598 108.653 97.407 108.588 97.6908 108.588C97.8741 108.588 98.047 108.618 98.2096 108.677C98.3735 108.735 98.518 108.826 98.6432 108.948C98.7697 109.071 98.869 109.227 98.9413 109.417C99.0135 109.605 99.0497 109.83 99.0497 110.09V110.305H96.6127V109.833H98.378C98.3767 109.699 98.3477 109.579 98.2909 109.475C98.2341 109.369 98.1548 109.286 98.0528 109.225C97.9522 109.164 97.8347 109.134 97.7005 109.134C97.5573 109.134 97.4315 109.169 97.3231 109.239C97.2147 109.307 97.1302 109.397 97.0695 109.51C97.0101 109.621 96.9798 109.743 96.9785 109.875V110.288C96.9785 110.461 97.0101 110.609 97.0734 110.733C97.1366 110.856 97.225 110.95 97.3386 111.016C97.4521 111.08 97.585 111.112 97.7373 111.112C97.8392 111.112 97.9315 111.098 98.0141 111.07C98.0967 111.04 98.1683 110.997 98.229 110.94C98.2896 110.883 98.3354 110.813 98.3664 110.729L99.0206 110.803C98.9793 110.976 98.9006 111.127 98.7845 111.256C98.6696 111.383 98.5225 111.483 98.3432 111.554C98.1638 111.623 97.9586 111.658 97.7276 111.658Z" fill="#333639" fill-opacity="0.6"/>
<path d="M82.2771 109.242L79.8985 106.836V108.218C77.6923 108.228 75.9023 110.035 75.9023 112.267C75.9023 112.649 75.9598 113.016 76.0555 113.364C76.5293 111.663 78.0656 110.417 79.8985 110.412V111.644L82.2771 109.238V109.242Z" stroke="#333639" stroke-opacity="0.6" stroke-width="0.63" stroke-linejoin="round"/>
</svg>
