<svg width="106" height="122" viewBox="0 0 106 122" fill="none" xmlns="http://www.w3.org/2000/svg">
<rect x="0.5" y="0.5" width="105" height="121" rx="9.66" fill="white" stroke="#EFEFF5"/>
<g clip-path="url(#clip0_534_820)">
<rect width="10.0001" height="10" transform="translate(6 106)" fill="white"/>
<path d="M11.2585 114.671C11.1169 114.721 10.8835 114.721 10.7419 114.671C9.53352 114.258 6.8335 112.538 6.8335 109.621C6.8335 108.333 7.87101 107.292 9.15018 107.292C9.90852 107.292 10.5794 107.658 11.0002 108.225C11.2143 107.936 11.4931 107.701 11.8144 107.539C12.1356 107.377 12.4904 107.292 12.8502 107.292C14.1294 107.292 15.1669 108.333 15.1669 109.621C15.1669 112.538 12.4669 114.258 11.2585 114.671Z" stroke="#333639" stroke-opacity="0.6" stroke-width="0.625003" stroke-linecap="round" stroke-linejoin="round"/>
</g>
<g clip-path="url(#clip1_534_820)">
<rect width="10.0001" height="10" transform="translate(21 106)" fill="white"/>
<path d="M24.5419 113.917H24.3335C22.6668 113.917 21.8335 113.5 21.8335 111.417V109.334C21.8335 107.667 22.6668 106.834 24.3335 106.834H27.6669C29.3336 106.834 30.1669 107.667 30.1669 109.334V111.417C30.1669 113.084 29.3336 113.917 27.6669 113.917H27.4585C27.3294 113.917 27.2044 113.98 27.1252 114.084L26.5002 114.917C26.2252 115.284 25.7752 115.284 25.5002 114.917L24.8752 114.084C24.8085 113.992 24.6544 113.917 24.5419 113.917Z" stroke="#333639" stroke-opacity="0.6" stroke-width="0.625003" stroke-miterlimit="10" stroke-linecap="round" stroke-linejoin="round"/>
<path d="M27.6648 110.583H27.669M25.9977 110.583H26.0019M24.3311 110.583H24.3344" stroke="#333639" stroke-opacity="0.6" stroke-width="0.833337" stroke-linecap="round" stroke-linejoin="round"/>
</g>
<rect width="10.0001" height="10" transform="translate(90 106)" fill="white"/>
<path d="M92.0833 110.167C91.625 110.167 91.25 110.542 91.25 111C91.25 111.459 91.625 111.834 92.0833 111.834C92.5417 111.834 92.9167 111.459 92.9167 111C92.9167 110.542 92.5417 110.167 92.0833 110.167ZM97.9167 110.167C97.4584 110.167 97.0834 110.542 97.0834 111C97.0834 111.459 97.4584 111.834 97.9167 111.834C98.3751 111.834 98.7501 111.459 98.7501 111C98.7501 110.542 98.3751 110.167 97.9167 110.167ZM95 110.167C94.5417 110.167 94.1667 110.542 94.1667 111C94.1667 111.459 94.5417 111.834 95 111.834C95.4584 111.834 95.8334 111.459 95.8334 111C95.8334 110.542 95.4584 110.167 95 110.167Z" stroke="#333639" stroke-opacity="0.6" stroke-width="0.625003"/>
<rect opacity="0.34" x="6" y="6" width="94" height="94" rx="5.08" fill="url(#paint0_radial_534_820)"/>
<path d="M53.3 46.5C55.5 46.5 55.8 46.5 56.7 46.5C57.5 46.5 57.9 46.7 58.2 46.8C58.6 47 58.9 47.1 59.2 47.4C59.5 47.7 59.7 48 59.8 48.4C59.9 48.7 60 49.1 60.1 49.9C60.1 50.8 60.1 51 60.1 53.3C60.1 55.6 60.1 55.8 60.1 56.7C60.1 57.5 59.9 57.9 59.8 58.2C59.6 58.6 59.5 58.9 59.2 59.2C58.9 59.5 58.6 59.7 58.2 59.8C57.9 59.9 57.5 60 56.7 60.1C55.8 60.1 55.6 60.1 53.3 60.1C51 60.1 50.8 60.1 49.9 60.1C49.1 60.1 48.7 59.9 48.4 59.8C48 59.6 47.7 59.5 47.4 59.2C47.1 58.9 46.9 58.6 46.8 58.2C46.7 57.9 46.6 57.5 46.5 56.7C46.5 55.8 46.5 55.6 46.5 53.3C46.5 51 46.5 50.8 46.5 49.9C46.5 49.1 46.7 48.7 46.8 48.4C47 48 47.1 47.7 47.4 47.4C47.7 47.1 48 46.9 48.4 46.8C48.7 46.7 49.1 46.6 49.9 46.5C50.8 46.5 51.1 46.5 53.3 46.5ZM53.3 45C51 45 50.8 45 49.9 45C49 45 48.4 45.2 47.9 45.4C47.4 45.6 46.9 45.9 46.4 46.4C45.9 46.9 45.7 47.3 45.4 47.9C45.2 48.4 45.1 49 45 49.9C45 50.8 45 51.1 45 53.3C45 55.6 45 55.8 45 56.7C45 57.6 45.2 58.2 45.4 58.7C45.6 59.2 45.9 59.7 46.4 60.2C46.9 60.7 47.3 60.9 47.9 61.2C48.4 61.4 49 61.5 49.9 61.6C50.8 61.6 51.1 61.6 53.3 61.6C55.5 61.6 55.8 61.6 56.7 61.6C57.6 61.6 58.2 61.4 58.7 61.2C59.2 61 59.7 60.7 60.2 60.2C60.7 59.7 60.9 59.3 61.2 58.7C61.4 58.2 61.5 57.6 61.6 56.7C61.6 55.8 61.6 55.5 61.6 53.3C61.6 51.1 61.6 50.8 61.6 49.9C61.6 49 61.4 48.4 61.2 47.9C61 47.4 60.7 46.9 60.2 46.4C59.7 45.9 59.3 45.7 58.7 45.4C58.2 45.2 57.6 45.1 56.7 45C55.8 45 55.6 45 53.3 45Z" fill="url(#paint1_radial_534_820)"/>
<path d="M53.3 49C50.9 49 49 50.9 49 53.3C49 55.7 50.9 57.6 53.3 57.6C55.7 57.6 57.6 55.7 57.6 53.3C57.6 50.9 55.7 49 53.3 49ZM53.3 56.1C51.8 56.1 50.5 54.9 50.5 53.3C50.5 51.8 51.7 50.5 53.3 50.5C54.8 50.5 56.1 51.7 56.1 53.3C56.1 54.8 54.8 56.1 53.3 56.1Z" fill="url(#paint2_radial_534_820)"/>
<path d="M57.7 49.9C58.2523 49.9 58.7 49.4523 58.7 48.9C58.7 48.3477 58.2523 47.9 57.7 47.9C57.1477 47.9 56.7 48.3477 56.7 48.9C56.7 49.4523 57.1477 49.9 57.7 49.9Z" fill="url(#paint3_radial_534_820)"/>
<defs>
<radialGradient id="paint0_radial_534_820" cx="0" cy="0" r="1" gradientUnits="userSpaceOnUse" gradientTransform="translate(114.5 -10.5) rotate(132.019) scale(135.949)">
<stop stop-color="#99C5FF"/>
<stop offset="0.359375" stop-color="#F7C6ED"/>
<stop offset="0.671875" stop-color="#E8A9BD"/>
<stop offset="1" stop-color="#EBDCB7"/>
</radialGradient>
<radialGradient id="paint1_radial_534_820" cx="0" cy="0" r="1" gradientUnits="userSpaceOnUse" gradientTransform="translate(64.1606 42.0862) rotate(132.019) scale(24.0079)">
<stop stop-color="#1471EC"/>
<stop offset="0.359375" stop-color="#DD22B9"/>
<stop offset="0.671875" stop-color="#FF0C5A"/>
<stop offset="1" stop-color="#E7B94A"/>
</radialGradient>
<radialGradient id="paint2_radial_534_820" cx="0" cy="0" r="1" gradientUnits="userSpaceOnUse" gradientTransform="translate(64.1606 42.0862) rotate(132.019) scale(24.0079)">
<stop stop-color="#1471EC"/>
<stop offset="0.359375" stop-color="#DD22B9"/>
<stop offset="0.671875" stop-color="#FF0C5A"/>
<stop offset="1" stop-color="#E7B94A"/>
</radialGradient>
<radialGradient id="paint3_radial_534_820" cx="0" cy="0" r="1" gradientUnits="userSpaceOnUse" gradientTransform="translate(64.1606 42.0862) rotate(132.019) scale(24.0079)">
<stop stop-color="#1471EC"/>
<stop offset="0.359375" stop-color="#DD22B9"/>
<stop offset="0.671875" stop-color="#FF0C5A"/>
<stop offset="1" stop-color="#E7B94A"/>
</radialGradient>
<clipPath id="clip0_534_820">
<rect width="10.0001" height="10" fill="white" transform="translate(6 106)"/>
</clipPath>
<clipPath id="clip1_534_820">
<rect width="10.0001" height="10" fill="white" transform="translate(21 106)"/>
</clipPath>
</defs>
</svg>
