<svg width="76" height="124" viewBox="0 0 76 124" fill="none" xmlns="http://www.w3.org/2000/svg">
<rect x="0.5" y="0.5" width="75" height="123" rx="9.66" fill="white" stroke="#EFEFF5"/>
<rect opacity="0.7" x="6.315" y="110.315" width="42.37" height="7.37" rx="3.685" stroke="#333639" stroke-opacity="0.6" stroke-width="0.63"/>
<g clip-path="url(#clip0_534_807)">
<path d="M67.9183 111.532L65.2361 112.426C64.2154 112.766 63.705 112.937 63.6253 113.224C63.5981 113.322 63.5981 113.425 63.6253 113.523C63.705 113.811 64.2154 113.981 65.2361 114.321C65.5191 114.415 65.6606 114.462 65.7712 114.553C65.8116 114.586 65.8485 114.623 65.8815 114.663C65.9719 114.774 66.019 114.915 66.1133 115.198C66.4536 116.219 66.6237 116.729 66.9109 116.809C67.0089 116.836 67.1125 116.836 67.2105 116.809C67.4977 116.729 67.6678 116.219 68.0081 115.198L68.9021 112.516C69.1168 111.872 69.2241 111.55 69.0541 111.38C68.8842 111.21 68.5622 111.318 67.9183 111.532Z" stroke="#333639" stroke-opacity="0.6" stroke-width="0.63"/>
</g>
<rect width="7" height="7" transform="translate(53 110.5)" fill="white"/>
<path d="M56.681 116.57C56.5818 116.605 56.4185 116.605 56.3193 116.57C55.4735 116.281 53.5835 115.076 53.5835 113.035C53.5835 112.133 54.3097 111.404 55.2052 111.404C55.736 111.404 56.2056 111.661 56.5002 112.058C56.65 111.855 56.8452 111.691 57.0701 111.577C57.295 111.464 57.5433 111.405 57.7952 111.404C58.6906 111.404 59.4168 112.133 59.4168 113.035C59.4168 115.076 57.5268 116.281 56.681 116.57Z" stroke="#333639" stroke-opacity="0.6" stroke-width="0.63" stroke-linecap="round" stroke-linejoin="round"/>
<rect opacity="0.34" x="6" y="6" width="64" height="98" rx="5.08" fill="url(#paint0_radial_534_807)"/>
<path d="M38.3 48.5C40.5 48.5 40.8 48.5 41.7 48.5C42.5 48.5 42.9 48.7 43.2 48.8C43.6 49 43.9 49.1 44.2 49.4C44.5 49.7 44.7 50 44.8 50.4C44.9 50.7 45 51.1 45.1 51.9C45.1 52.8 45.1 53 45.1 55.3C45.1 57.6 45.1 57.8 45.1 58.7C45.1 59.5 44.9 59.9 44.8 60.2C44.6 60.6 44.5 60.9 44.2 61.2C43.9 61.5 43.6 61.7 43.2 61.8C42.9 61.9 42.5 62 41.7 62.1C40.8 62.1 40.6 62.1 38.3 62.1C36 62.1 35.8 62.1 34.9 62.1C34.1 62.1 33.7 61.9 33.4 61.8C33 61.6 32.7 61.5 32.4 61.2C32.1 60.9 31.9 60.6 31.8 60.2C31.7 59.9 31.6 59.5 31.5 58.7C31.5 57.8 31.5 57.6 31.5 55.3C31.5 53 31.5 52.8 31.5 51.9C31.5 51.1 31.7 50.7 31.8 50.4C32 50 32.1 49.7 32.4 49.4C32.7 49.1 33 48.9 33.4 48.8C33.7 48.7 34.1 48.6 34.9 48.5C35.8 48.5 36.1 48.5 38.3 48.5ZM38.3 47C36 47 35.8 47 34.9 47C34 47 33.4 47.2 32.9 47.4C32.4 47.6 31.9 47.9 31.4 48.4C30.9 48.9 30.7 49.3 30.4 49.9C30.2 50.4 30.1 51 30 51.9C30 52.8 30 53.1 30 55.3C30 57.6 30 57.8 30 58.7C30 59.6 30.2 60.2 30.4 60.7C30.6 61.2 30.9 61.7 31.4 62.2C31.9 62.7 32.3 62.9 32.9 63.2C33.4 63.4 34 63.5 34.9 63.6C35.8 63.6 36.1 63.6 38.3 63.6C40.5 63.6 40.8 63.6 41.7 63.6C42.6 63.6 43.2 63.4 43.7 63.2C44.2 63 44.7 62.7 45.2 62.2C45.7 61.7 45.9 61.3 46.2 60.7C46.4 60.2 46.5 59.6 46.6 58.7C46.6 57.8 46.6 57.5 46.6 55.3C46.6 53.1 46.6 52.8 46.6 51.9C46.6 51 46.4 50.4 46.2 49.9C46 49.4 45.7 48.9 45.2 48.4C44.7 47.9 44.3 47.7 43.7 47.4C43.2 47.2 42.6 47.1 41.7 47C40.8 47 40.6 47 38.3 47Z" fill="url(#paint1_radial_534_807)"/>
<path d="M38.3 51C35.9 51 34 52.9 34 55.3C34 57.7 35.9 59.6 38.3 59.6C40.7 59.6 42.6 57.7 42.6 55.3C42.6 52.9 40.7 51 38.3 51ZM38.3 58.1C36.8 58.1 35.5 56.9 35.5 55.3C35.5 53.8 36.7 52.5 38.3 52.5C39.8 52.5 41.1 53.7 41.1 55.3C41.1 56.8 39.8 58.1 38.3 58.1Z" fill="url(#paint2_radial_534_807)"/>
<path d="M42.7 51.9C43.2523 51.9 43.7 51.4523 43.7 50.9C43.7 50.3477 43.2523 49.9 42.7 49.9C42.1477 49.9 41.7 50.3477 41.7 50.9C41.7 51.4523 42.1477 51.9 42.7 51.9Z" fill="url(#paint3_radial_534_807)"/>
<defs>
<radialGradient id="paint0_radial_534_807" cx="0" cy="0" r="1" gradientUnits="userSpaceOnUse" gradientTransform="translate(79.8723 -11.2021) rotate(120.473) scale(122.174 107.38)">
<stop stop-color="#99C5FF"/>
<stop offset="0.359375" stop-color="#F7C6ED"/>
<stop offset="0.671875" stop-color="#E8A9BD"/>
<stop offset="1" stop-color="#EBDCB7"/>
</radialGradient>
<radialGradient id="paint1_radial_534_807" cx="0" cy="0" r="1" gradientUnits="userSpaceOnUse" gradientTransform="translate(49.1606 44.0862) rotate(132.019) scale(24.0079)">
<stop stop-color="#1471EC"/>
<stop offset="0.359375" stop-color="#DD22B9"/>
<stop offset="0.671875" stop-color="#FF0C5A"/>
<stop offset="1" stop-color="#E7B94A"/>
</radialGradient>
<radialGradient id="paint2_radial_534_807" cx="0" cy="0" r="1" gradientUnits="userSpaceOnUse" gradientTransform="translate(49.1606 44.0862) rotate(132.019) scale(24.0079)">
<stop stop-color="#1471EC"/>
<stop offset="0.359375" stop-color="#DD22B9"/>
<stop offset="0.671875" stop-color="#FF0C5A"/>
<stop offset="1" stop-color="#E7B94A"/>
</radialGradient>
<radialGradient id="paint3_radial_534_807" cx="0" cy="0" r="1" gradientUnits="userSpaceOnUse" gradientTransform="translate(49.1606 44.0862) rotate(132.019) scale(24.0079)">
<stop stop-color="#1471EC"/>
<stop offset="0.359375" stop-color="#DD22B9"/>
<stop offset="0.671875" stop-color="#FF0C5A"/>
<stop offset="1" stop-color="#E7B94A"/>
</radialGradient>
<clipPath id="clip0_534_807">
<rect width="7" height="7" fill="white" transform="translate(63 110.5)"/>
</clipPath>
</defs>
</svg>
