<svg width="147" height="26" viewBox="0 0 147 26" fill="none" xmlns="http://www.w3.org/2000/svg">
<path d="M135.5 7.75339L136.768 11.4205H134.232L135.5 7.75339Z" fill="#333639"/>
<path fill-rule="evenodd" clip-rule="evenodd" d="M127.624 2.65048C127.273 3.33832 127.273 4.23874 127.273 6.0396V14.1764C127.273 15.9773 127.273 16.8777 127.624 17.5656C127.932 18.1706 128.424 18.6625 129.029 18.9708C129.717 19.3213 130.617 19.3213 132.418 19.3213H141.855C143.656 19.3213 144.556 19.3213 145.244 18.9708C145.849 18.6625 146.341 18.1706 146.65 17.5656C147 16.8777 147 15.9773 147 14.1764V6.0396C147 4.23874 147 3.33832 146.65 2.65048C146.341 2.04544 145.849 1.55353 145.244 1.24525C144.556 0.894775 143.656 0.894775 141.855 0.894775H132.418C130.617 0.894775 129.717 0.894775 129.029 1.24525C128.424 1.55353 127.932 2.04544 127.624 2.65048ZM133.177 14.4973L133.754 12.827H137.246L137.823 14.4973H139.682L136.53 5.71891H134.483L131.331 14.4973H133.177ZM142.378 14.4973V5.73147H140.62V14.4973H142.378Z" fill="#333639"/>
<path d="M127.688 21.4095C127.688 20.9655 128.048 20.6056 128.492 20.6056H145.882C146.326 20.6056 146.686 20.9655 146.686 21.4095C146.686 21.8535 146.326 22.2134 145.882 22.2134H128.492C128.048 22.2134 127.688 21.8535 127.688 21.4095Z" fill="#333639"/>
<path d="M128.492 23.4977C128.048 23.4977 127.688 23.8576 127.688 24.3016C127.688 24.7455 128.048 25.1054 128.492 25.1054H145.882C146.326 25.1054 146.686 24.7455 146.686 24.3016C146.686 23.8576 146.326 23.4977 145.882 23.4977H128.492Z" fill="#333639"/>
<path d="M6.6582 10.0954H4.51964V19.7741H1.38896V10.0954H0V7.56001H1.38896V6.94269C1.38896 5.44349 1.81521 4.34114 2.66769 3.63564C3.52018 2.93013 4.80625 2.59943 6.52592 2.64352V5.24507C5.77632 5.23037 5.25454 5.35531 4.96058 5.61987C4.66662 5.88443 4.51964 6.36212 4.51964 7.05293V7.56001H6.6582V10.0954Z" fill="#333639"/>
<path fill-rule="evenodd" clip-rule="evenodd" d="M19.6135 13.4025C19.6135 13.8434 19.5841 14.2403 19.5253 14.593H10.5963C10.6698 15.4749 10.9784 16.1657 11.5222 16.6654C12.0661 17.1652 12.7348 17.415 13.5285 17.415C14.675 17.415 15.4907 16.9226 15.9757 15.9379H19.3048C18.9521 17.1137 18.276 18.0838 17.2765 18.8481C16.2771 19.5977 15.0498 19.9725 13.5947 19.9725C12.4188 19.9725 11.3606 19.7153 10.4199 19.2008C9.49391 18.6717 8.76636 17.9295 8.23723 16.9741C7.7228 16.0187 7.46558 14.9164 7.46558 13.667C7.46558 12.403 7.7228 11.2933 8.23723 10.3379C8.75166 9.38256 9.47187 8.64766 10.3978 8.13323C11.3238 7.6188 12.3894 7.36159 13.5947 7.36159C14.7558 7.36159 15.792 7.61145 16.7033 8.11119C17.6293 8.61092 18.3421 9.32377 18.8419 10.2497C19.3563 11.161 19.6135 12.2119 19.6135 13.4025ZM16.4167 12.5206C16.402 11.7269 16.1154 11.0949 15.5568 10.6245C14.9983 10.1395 14.3149 9.89699 13.5065 9.89699C12.7422 9.89699 12.0955 10.1322 11.5663 10.6025C11.0519 11.0581 10.7359 11.6975 10.6183 12.5206H16.4167Z" fill="#333639"/>
<path fill-rule="evenodd" clip-rule="evenodd" d="M32.912 14.593C32.9708 14.2403 33.0002 13.8434 33.0002 13.4025C33.0002 12.2119 32.743 11.161 32.2285 10.2497C31.7288 9.32377 31.0159 8.61092 30.09 8.11119C29.1787 7.61145 28.1425 7.36159 26.9813 7.36159C25.7761 7.36159 24.7105 7.6188 23.7845 8.13323C22.8585 8.64766 22.1383 9.38256 21.6239 10.3379C21.1095 11.2933 20.8523 12.403 20.8523 13.667C20.8523 14.9164 21.1095 16.0187 21.6239 16.9741C22.153 17.9295 22.8806 18.6717 23.8066 19.2008C24.7472 19.7153 25.8055 19.9725 26.9813 19.9725C28.4364 19.9725 29.6637 19.5977 30.6632 18.8481C31.6627 18.0838 32.3388 17.1137 32.6915 15.9379H29.3624C28.8774 16.9226 28.0616 17.415 26.9152 17.415C26.1215 17.415 25.4527 17.1652 24.9089 16.6654C24.3651 16.1657 24.0564 15.4749 23.9829 14.593H32.912ZM28.9435 10.6245C29.5021 11.0949 29.7887 11.7269 29.8034 12.5206H24.005C24.1226 11.6975 24.4386 11.0581 24.953 10.6025C25.4821 10.1322 26.1289 9.89699 26.8932 9.89699C27.7015 9.89699 28.385 10.1395 28.9435 10.6245Z" fill="#333639"/>
<path fill-rule="evenodd" clip-rule="evenodd" d="M34.2389 13.6229C34.2389 12.3883 34.4815 11.2933 34.9665 10.3379C35.4662 9.38256 36.1423 8.64766 36.9948 8.13323C37.8473 7.6188 38.7953 7.36159 39.8389 7.36159C40.6326 7.36159 41.3895 7.53796 42.1097 7.89071C42.8299 8.22877 43.4032 8.68441 43.8294 9.25763V3.45926H46.9601V19.7741H43.8294V17.9662C43.4473 18.5688 42.9108 19.0539 42.22 19.4213C41.5292 19.7888 40.7281 19.9725 39.8168 19.9725C38.788 19.9725 37.8473 19.7079 36.9948 19.1788C36.1423 18.6497 35.4662 17.9074 34.9665 16.952C34.4815 15.982 34.2389 14.8723 34.2389 13.6229ZM43.8515 13.667C43.8515 12.9174 43.7045 12.2781 43.4105 11.7489C43.1166 11.2051 42.7197 10.7936 42.22 10.5143C41.7202 10.2204 41.1838 10.0734 40.6105 10.0734C40.0373 10.0734 39.5082 10.213 39.0232 10.4923C38.5381 10.7715 38.1413 11.1831 37.8326 11.7269C37.5387 12.256 37.3917 12.888 37.3917 13.6229C37.3917 14.3578 37.5387 15.0046 37.8326 15.5631C38.1413 16.1069 38.5381 16.5258 39.0232 16.8198C39.5229 17.1137 40.052 17.2607 40.6105 17.2607C41.1838 17.2607 41.7202 17.1211 42.22 16.8418C42.7197 16.5478 43.1166 16.1363 43.4105 15.6072C43.7045 15.0633 43.8515 14.4166 43.8515 13.667Z" fill="#333639"/>
<path d="M67.9673 8.7726C67.056 7.84662 65.8507 7.38363 64.3515 7.38363C63.4697 7.38363 62.6466 7.59675 61.8823 8.023C61.1327 8.44924 60.5595 9.01511 60.1626 9.72062C59.7511 8.97102 59.1705 8.39779 58.4209 8.00095C57.6713 7.5894 56.8188 7.38363 55.8634 7.38363C55.1138 7.38363 54.423 7.53061 53.791 7.82457C53.1737 8.11853 52.6666 8.52273 52.2698 9.03716V7.56001H49.1832V19.7741H52.2698V13.0277C52.2698 12.0723 52.5123 11.3447 52.9973 10.845C53.4971 10.3306 54.1732 10.0734 55.0257 10.0734C55.8634 10.0734 56.5249 10.3306 57.0099 10.845C57.4949 11.3447 57.7374 12.0723 57.7374 13.0277V19.7741H60.824V13.0277C60.824 12.0723 61.0665 11.3447 61.5516 10.845C62.0513 10.3306 62.7201 10.0734 63.5579 10.0734C64.3956 10.0734 65.0571 10.3306 65.5421 10.845C66.0271 11.3447 66.2696 12.0723 66.2696 13.0277V19.7741H69.3562V12.6088C69.3562 10.9626 68.8932 9.68387 67.9673 8.7726Z" fill="#333639"/>
<path fill-rule="evenodd" clip-rule="evenodd" d="M70.9366 13.6229C70.9366 12.3883 71.1791 11.2933 71.6642 10.3379C72.1639 9.38256 72.8326 8.64766 73.6704 8.13323C74.5229 7.6188 75.4709 7.36159 76.5145 7.36159C77.4258 7.36159 78.2195 7.54531 78.8956 7.91276C79.5864 8.28021 80.1376 8.7432 80.5491 9.30172V7.56001H83.6577V19.7741H80.5491V17.9883C80.1523 18.5615 79.6011 19.0392 78.8956 19.4213C78.2048 19.7888 77.4037 19.9725 76.4925 19.9725C75.4636 19.9725 74.5229 19.7079 73.6704 19.1788C72.8326 18.6497 72.1639 17.9074 71.6642 16.952C71.1791 15.982 70.9366 14.8723 70.9366 13.6229ZM80.5491 13.667C80.5491 12.9174 80.4021 12.2781 80.1082 11.7489C79.8142 11.2051 79.4174 10.7936 78.9176 10.5143C78.4179 10.2204 77.8814 10.0734 77.3082 10.0734C76.735 10.0734 76.2058 10.213 75.7208 10.4923C75.2358 10.7715 74.8389 11.1831 74.5303 11.7269C74.2363 12.256 74.0893 12.888 74.0893 13.6229C74.0893 14.3578 74.2363 15.0046 74.5303 15.5631C74.8389 16.1069 75.2358 16.5258 75.7208 16.8198C76.2205 17.1137 76.7497 17.2607 77.3082 17.2607C77.8814 17.2607 78.4179 17.1211 78.9176 16.8418C79.4174 16.5478 79.8142 16.1363 80.1082 15.6072C80.4021 15.0633 80.5491 14.4166 80.5491 13.667Z" fill="#333639"/>
<path d="M88.9539 14.571L93.0987 19.7741H97.1113L91.6877 13.6891L97.0672 7.56001H93.0546L88.9539 12.7411V3.45926H85.8673V19.7741H88.9539V14.571Z" fill="#333639"/>
<path fill-rule="evenodd" clip-rule="evenodd" d="M108.846 13.4025C108.846 13.8434 108.816 14.2403 108.758 14.593H99.8285C99.902 15.4749 100.211 16.1657 100.755 16.6654C101.298 17.1652 101.967 17.415 102.761 17.415C103.907 17.415 104.723 16.9226 105.208 15.9379H108.537C108.184 17.1137 107.508 18.0838 106.509 18.8481C105.509 19.5977 104.282 19.9725 102.827 19.9725C101.651 19.9725 100.593 19.7153 99.6522 19.2008C98.7262 18.6717 97.9986 17.9295 97.4695 16.9741C96.9551 16.0187 96.6979 14.9164 96.6979 13.667C96.6979 12.403 96.9551 11.2933 97.4695 10.3379C97.9839 9.38256 98.7041 8.64766 99.6301 8.13323C100.556 7.6188 101.622 7.36159 102.827 7.36159C103.988 7.36159 105.024 7.61145 105.936 8.11119C106.862 8.61092 107.574 9.32377 108.074 10.2497C108.589 11.161 108.846 12.2119 108.846 13.4025ZM105.649 12.5206C105.634 11.7269 105.348 11.0949 104.789 10.6245C104.231 10.1395 103.547 9.89699 102.739 9.89699C101.974 9.89699 101.328 10.1322 100.799 10.6025C100.284 11.0581 99.9682 11.6975 99.8506 12.5206H105.649Z" fill="#333639"/>
<path d="M115.051 7.93481C114.419 8.30226 113.905 8.80934 113.508 9.45605V7.56001H110.421V19.7741H113.508V13.6891C113.508 12.5573 113.75 11.7636 114.235 11.308C114.735 10.8524 115.47 10.6245 116.44 10.6245H117.256V7.38363C116.433 7.38363 115.698 7.56736 115.051 7.93481Z" fill="#333639"/>
<path d="M119.117 19.9725C119.963 19.9725 120.648 19.2874 120.648 18.4423C120.648 17.5973 119.963 16.9122 119.117 16.9122C118.272 16.9122 117.587 17.5973 117.587 18.4423C117.587 19.2874 118.272 19.9725 119.117 19.9725Z" fill="#333639"/>
</svg>
