<svg xmlns="http://www.w3.org/2000/svg" xmlns:xlink="http://www.w3.org/1999/xlink"><symbol fill="currentColor" viewBox="0 0 20 20" id="checkmark"><path fill-rule="evenodd" clip-rule="evenodd" d="M15.265 6.37a.75.75 0 0 1 0 1.06l-7.2 7.2a.75.75 0 0 1-1.06 0l-3.27-3.27a.75.75 0 0 1 1.06-1.06l2.74 2.74 6.67-6.67a.75.75 0 0 1 1.06 0Z"/></symbol><symbol fill="currentColor" viewBox="0 0 18 18" id="chevron_down"><path fill-rule="evenodd" clip-rule="evenodd" d="M3.523 5.523a.675.675 0 0 1 .954 0L9 10.045l4.523-4.522a.675.675 0 0 1 .954.954l-5 5a.675.675 0 0 1-.954 0l-5-5a.675.675 0 0 1 0-.954Z"/></symbol><symbol fill="currentColor" viewBox="0 0 18 18" id="chevron_left"><path fill-rule="evenodd" clip-rule="evenodd" d="M11.977 14.477a.675.675 0 0 0 0-.954L7.455 9l4.522-4.523a.675.675 0 0 0-.954-.954l-5 5a.675.675 0 0 0 0 .954l5 5a.675.675 0 0 0 .954 0Z"/></symbol><symbol fill="currentColor" viewBox="0 0 18 18" id="chevron_right"><path fill-rule="evenodd" clip-rule="evenodd" d="M6.023 14.477a.675.675 0 0 1 0-.954L10.545 9 6.023 4.477a.675.675 0 0 1 .954-.954l5 5a.675.675 0 0 1 0 .954l-5 5a.675.675 0 0 1-.954 0Z"/></symbol><symbol fill="currentColor" viewBox="0 0 18 18" id="cross"><path fill-rule="evenodd" clip-rule="evenodd" d="M4.28 4.28a.675.675 0 0 1 .955 0l8.485 8.485a.675.675 0 0 1-.955.955L4.28 5.235a.675.675 0 0 1 0-.955Z"/><path fill-rule="evenodd" clip-rule="evenodd" d="M13.72 4.28a.675.675 0 0 1 0 .955L5.235 13.72a.675.675 0 0 1-.955-.955l8.485-8.485a.675.675 0 0 1 .955 0Z"/></symbol><symbol fill="currentColor" viewBox="0 0 8 8" id="dot"><path d="M7 4a3 3 0 1 1-6 0 3 3 0 0 1 6 0Z"/></symbol><symbol fill="currentColor" viewBox="0 0 20 20" id="dots"><path fill-rule="evenodd" clip-rule="evenodd" d="M6 9.5a1.5 1.5 0 1 1-3 0 1.5 1.5 0 0 1 3 0Zm5.5 0a1.5 1.5 0 1 1-3 0 1.5 1.5 0 0 1 3 0Zm4 1.5a1.5 1.5 0 1 0 0-3 1.5 1.5 0 0 0 0 3Z"/></symbol><symbol fill="currentColor" viewBox="0 0 20 20" id="envelope"><path fill-rule="evenodd" clip-rule="evenodd" d="M3.575 5.418c-.49.402-.825 1.049-.825 2.111v4.942c0 1.062.336 1.71.825 2.11.516.423 1.32.669 2.425.669h8c1.105 0 1.909-.246 2.425-.668.49-.402.825-1.049.825-2.111V7.529c0-1.062-.336-1.71-.825-2.11-.516-.423-1.32-.669-2.425-.669H6c-1.105 0-1.909.246-2.425.668Zm-.95-1.16C3.509 3.534 4.705 3.25 6 3.25h8c1.295 0 2.491.284 3.375 1.008.91.746 1.375 1.863 1.375 3.271v4.942c0 1.408-.464 2.525-1.375 3.27-.884.725-2.08 1.009-3.375 1.009H6c-1.295 0-2.491-.284-3.375-1.008-.91-.746-1.375-1.863-1.375-3.271V7.529c0-1.408.464-2.525 1.375-3.27Z"/><path fill-rule="evenodd" clip-rule="evenodd" d="M15.6 6.55a.75.75 0 0 1-.15 1.05l-3.434 2.577c-1.129.892-2.912.892-4.041 0L4.549 7.599a.75.75 0 0 1 .902-1.198l3.433 2.583.016.013c.585.465 1.606.465 2.191 0a.81.81 0 0 1 .017-.013L14.55 6.4a.75.75 0 0 1 1.05.15Z"/></symbol><symbol fill="currentColor" viewBox="0 0 24 24" id="facebook"><path fill-rule="evenodd" clip-rule="evenodd" d="M0 12C0 5.373 5.373 0 12 0s12 5.373 12 12-5.373 12-12 12S0 18.627 0 12Zm12-6c3.3 0 6 2.7 6 6 0 3-2.175 5.55-5.175 6v-4.275h1.425l.3-1.725H12.9v-1.125c0-.45.225-.9.975-.9h.75v-1.5s-.675-.15-1.35-.15c-1.35 0-2.25.825-2.25 2.325V12h-1.5v1.725h1.5v4.2C8.175 17.475 6 15 6 12c0-3.3 2.7-6 6-6Z"/></symbol><symbol fill="currentColor" viewBox="0 0 20 20" id="grid"><path fill-rule="evenodd" clip-rule="evenodd" d="M11.168 1.527c.509-.479 1.213-.61 1.94-.61h3.367c.728 0 1.431.131 1.94.61.52.489.668 1.18.668 1.89v5.666c0 .71-.148 1.401-.668 1.89-.508.479-1.212.61-1.94.61h-3.367c-.728 0-1.431-.131-1.94-.61-.52-.489-.668-1.18-.668-1.89V3.417c0-.71.148-1.401.668-1.89Zm1.028 1.092c-.078.074-.196.258-.196.798v5.666c0 .54.118.724.196.798.09.084.315.202.912.202h3.367c.597 0 .823-.118.912-.202.078-.074.196-.258.196-.798V3.417c0-.54-.118-.724-.196-.798-.09-.084-.315-.202-.912-.202h-3.367c-.597 0-.822.118-.912.202ZM11.168 13.193c.509-.478 1.213-.61 1.94-.61h3.367c.728 0 1.431.132 1.94.61.52.49.668 1.18.668 1.89v1.5c0 .71-.148 1.401-.668 1.89-.508.479-1.212.61-1.94.61h-3.367c-.728 0-1.431-.131-1.94-.61-.52-.489-.668-1.18-.668-1.89v-1.5c0-.71.148-1.4.668-1.89Zm1.028 1.093c-.078.073-.196.257-.196.797v1.5c0 .54.118.725.196.798.09.084.315.202.912.202h3.367c.597 0 .823-.118.912-.202.078-.073.196-.258.196-.798v-1.5c0-.54-.118-.724-.196-.797-.09-.084-.315-.203-.912-.203h-3.367c-.597 0-.822.119-.912.203ZM2.613 10.12c-.078.073-.196.257-.196.797v5.666c0 .54.118.725.196.798.09.084.315.202.912.202h3.367c.597 0 .822-.118.912-.202.078-.073.196-.258.196-.798v-5.666c0-.54-.118-.724-.196-.798-.09-.084-.315-.202-.912-.202H3.525c-.597 0-.823.118-.912.202ZM1.585 9.026c.509-.479 1.212-.61 1.94-.61h3.367c.727 0 1.431.131 1.94.61.52.489.668 1.18.668 1.89v5.666c0 .71-.148 1.401-.668 1.89-.509.479-1.213.61-1.94.61H3.525c-.728 0-1.431-.131-1.94-.61-.52-.489-.668-1.18-.668-1.89v-5.666c0-.71.148-1.401.668-1.89ZM2.613 2.62c-.078.073-.196.257-.196.797v1.5c0 .54.118.724.196.797.09.084.315.203.912.203h3.367c.597 0 .822-.119.912-.203.078-.073.196-.257.196-.797v-1.5c0-.54-.118-.724-.196-.798-.09-.084-.315-.202-.912-.202H3.525c-.597 0-.823.118-.912.202ZM1.585 1.526c.509-.479 1.212-.61 1.94-.61h3.367c.727 0 1.431.131 1.94.61.52.489.668 1.18.668 1.89v1.5c0 .71-.148 1.4-.668 1.89-.509.478-1.213.61-1.94.61H3.525c-.728 0-1.431-.132-1.94-.61-.52-.49-.668-1.18-.668-1.89v-1.5c0-.71.148-1.401.668-1.89Z"/></symbol><symbol fill="currentColor" viewBox="0 0 24 24" id="instagram"><path d="M12 14.1c-1.125 0-2.1-.9-2.1-2.1 0-1.125.9-2.1 2.1-2.1 1.125 0 2.1.9 2.1 2.1 0 1.125-.975 2.1-2.1 2.1Z"/><path fill-rule="evenodd" clip-rule="evenodd" d="M14.55 6.9h-5.1c-.6.075-.9.15-1.125.225-.3.075-.525.225-.75.45-.178.178-.262.356-.364.571a8.718 8.718 0 0 1-.086.179l-.04.11c-.078.215-.185.508-.185 1.015v5.1c.075.6.15.9.225 1.125.075.3.225.525.45.75.178.178.356.262.571.364l.179.086.11.04c.215.078.508.185 1.015.185h5.1c.6-.075.9-.15 1.125-.225.3-.075.525-.225.75-.45.178-.178.262-.356.364-.571l.086-.179.04-.11c.078-.215.185-.508.185-1.015v-5.1c-.075-.6-.15-.9-.225-1.125-.075-.3-.225-.525-.45-.75-.178-.178-.356-.262-.571-.364a8.645 8.645 0 0 1-.179-.086 4.08 4.08 0 0 1-.11-.04c-.215-.078-.508-.185-1.015-.185ZM12 8.775A3.201 3.201 0 0 0 8.775 12c0 1.8 1.425 3.225 3.225 3.225S15.225 13.8 15.225 12 13.8 8.775 12 8.775Zm4.05-.075a.75.75 0 1 1-1.5 0 .75.75 0 0 1 1.5 0Z"/><path fill-rule="evenodd" clip-rule="evenodd" d="M0 12C0 5.373 5.373 0 12 0s12 5.373 12 12-5.373 12-12 12S0 18.627 0 12Zm9.45-6.225h5.1c.675.075 1.125.15 1.5.3.45.225.75.375 1.125.75s.6.75.75 1.125c.15.375.3.825.3 1.5v5.1c-.075.675-.15 1.125-.3 1.5-.225.45-.375.75-.75 1.125s-.75.6-1.125.75c-.375.15-.825.3-1.5.3h-5.1c-.675-.075-1.125-.15-1.5-.3-.45-.225-.75-.375-1.125-.75s-.6-.75-.75-1.125c-.15-.375-.3-.825-.3-1.5v-5.1c.075-.675.15-1.125.3-1.5.225-.45.375-.75.75-1.125s.75-.6 1.125-.75c.375-.15.825-.3 1.5-.3Z"/></symbol><symbol fill="currentColor" viewBox="0 0 20 20" id="layers"><path fill-rule="evenodd" clip-rule="evenodd" d="M9.825 2.996c-.298 0-.555.052-.71.122h-.002L4.194 5.304c-.29.128-.458.256-.545.351a.294.294 0 0 0-.07.104.294.294 0 0 0 .07.105c.087.094.255.223.545.35l.002.002 4.919 2.184c.155.07.412.122.71.122s.555-.053.71-.122l.002-.001 4.919-2.184c.29-.128.458-.257.545-.351a.293.293 0 0 0 .07-.105.293.293 0 0 0-.07-.104c-.087-.095-.255-.223-.545-.351h-.002l-4.917-2.184-.002-.001c-.155-.07-.412-.122-.71-.122Zm1.322-1.248c-.403-.18-.883-.252-1.322-.252-.439 0-.92.072-1.322.252h-.001L3.589 3.93c-.783.346-1.51.95-1.51 1.828 0 .88.726 1.482 1.509 1.828l4.914 2.182c.404.18.884.253 1.323.253.439 0 .919-.072 1.322-.253h.001l4.913-2.182c.783-.346 1.51-.949 1.51-1.828 0-.879-.726-1.481-1.51-1.827.001 0 0 0 0 0l-4.913-2.182h-.001Z"/><path fill-rule="evenodd" clip-rule="evenodd" d="M2.5 8.417a.75.75 0 0 1 .75.75c0 .173.07.41.221.643.152.232.34.392.499.462l.001.001 5.657 2.516a.908.908 0 0 0 .739.002l.003-.001 5.659-2.517h.001c.16-.07.347-.23.499-.463.151-.233.221-.47.221-.643a.75.75 0 0 1 1.5 0c0 .526-.192 1.043-.464 1.46-.271.418-.666.804-1.149 1.017l-5.654 2.515h-.002a2.407 2.407 0 0 1-1.96.002l-5.657-2.517h-.001c-.483-.213-.878-.6-1.149-1.016-.272-.418-.464-.935-.464-1.461a.75.75 0 0 1 .75-.75Z"/><path fill-rule="evenodd" clip-rule="evenodd" d="M2.5 12.583a.75.75 0 0 1 .75.75c0 .476.281.91.722 1.107l5.656 2.516a.909.909 0 0 0 .739.002l.003-.002 5.657-2.516c.441-.197.723-.63.723-1.107a.75.75 0 0 1 1.5 0c0 1.074-.635 2.04-1.61 2.477h-.002l-5.655 2.515-.002.001a2.407 2.407 0 0 1-1.96.002l-5.66-2.518a2.714 2.714 0 0 1-1.611-2.477.75.75 0 0 1 .75-.75Z"/></symbol><symbol fill="currentColor" viewBox="0 0 24 24" id="link"><path fill-rule="evenodd" clip-rule="evenodd" d="M0 12C0 5.373 5.373 0 12 0s12 5.373 12 12-5.373 12-12 12S0 18.627 0 12Zm9.375-4.75a2.718 2.718 0 0 0-2.708 2.708c0 .654.235 1.253.625 1.722a.5.5 0 1 1-.769.64 3.685 3.685 0 0 1-.856-2.362A3.718 3.718 0 0 1 9.375 6.25h2.917A3.722 3.722 0 0 1 16 9.958a3.718 3.718 0 0 1-3.708 3.709h-1.459a.5.5 0 0 1 0-1h1.459A2.718 2.718 0 0 0 15 9.958a2.722 2.722 0 0 0-2.708-2.708H9.375ZM9 14.042a2.718 2.718 0 0 1 2.708-2.709h1.459a.5.5 0 1 0 0-1h-1.459A3.718 3.718 0 0 0 8 14.042a3.722 3.722 0 0 0 3.708 3.708h2.917a3.718 3.718 0 0 0 3.708-3.708c0-.899-.324-1.722-.856-2.362a.5.5 0 1 0-.769.64c.39.469.625 1.068.625 1.722a2.718 2.718 0 0 1-2.708 2.708h-2.917A2.722 2.722 0 0 1 9 14.042Z"/></symbol><symbol fill="currentColor" viewBox="0 0 24 24" id="linkedin"><path fill-rule="evenodd" clip-rule="evenodd" d="M0 12C0 5.373 5.373 0 12 0s12 5.373 12 12-5.373 12-12 12S0 18.627 0 12Zm6.15-2.025V18H8.7V9.975H6.15ZM6 7.425c0 .825.6 1.425 1.425 1.425.825 0 1.425-.6 1.425-1.425C8.85 6.6 8.25 6 7.425 6 6.675 6 6 6.6 6 7.425ZM15.45 18h2.4v-4.95c0-2.475-1.5-3.3-2.925-3.3-1.275 0-2.175.825-2.4 1.35V9.975h-2.4V18h2.55v-4.275c0-1.125.75-1.725 1.5-1.725s1.275.375 1.275 1.65V18Z"/></symbol><symbol fill="currentColor" viewBox="0 0 20 20" id="menu"><rect x="3" y="4" width="14" height="1.5" rx=".75"/><rect x="3" y="9" width="14" height="1.5" rx=".75"/><rect x="3" y="14" width="14" height="1.5" rx=".75"/></symbol><symbol fill="currentColor" viewBox="0 0 18 18" id="minus"><path fill-rule="evenodd" clip-rule="evenodd" d="M2.325 9c0-.373.302-.675.675-.675h12a.675.675 0 1 1 0 1.35H3A.675.675 0 0 1 2.325 9Z"/></symbol><symbol fill="currentColor" viewBox="0 0 20 20" id="pencil"><path fill-rule="evenodd" clip-rule="evenodd" d="M12.915 1.074c1.022-.13 2.041.29 3.057 1.246l.002.002c1.019.964 1.501 1.96 1.43 2.99-.07.99-.643 1.818-1.276 2.487l-6.837 7.237a2.81 2.81 0 0 1-.731.544 2.968 2.968 0 0 1-.845.308l-.005.001-2.683.458c-.683.118-1.349-.052-1.825-.504-.476-.451-.682-1.105-.606-1.793v-.002l.31-2.714c.039-.286.144-.59.265-.851.121-.26.289-.54.49-.755l.002-.001 6.842-7.242c.633-.669 1.428-1.286 2.41-1.411Zm-1.32 2.442-6.84 7.24s0-.001 0 0c-.056.06-.143.188-.224.361-.08.17-.124.32-.137.41l-.307 2.69c-.032.288.058.454.147.538.088.083.256.163.539.114l2.681-.458c.088-.016.236-.067.399-.154.165-.088.282-.18.334-.237l.01-.01 6.841-7.242c.55-.581.836-1.091.869-1.56.03-.431-.142-1.018-.963-1.796-.817-.768-1.41-.905-1.838-.85-.468.06-.961.372-1.511.954Z"/><path fill-rule="evenodd" clip-rule="evenodd" d="M9.793 3.467a.75.75 0 0 1 .856.626 4.355 4.355 0 0 0 3.876 3.66.75.75 0 0 1-.15 1.493 5.855 5.855 0 0 1-5.208-4.922.75.75 0 0 1 .626-.857ZM1.75 18.333a.75.75 0 0 1 .75-.75h15a.75.75 0 0 1 0 1.5h-15a.75.75 0 0 1-.75-.75Z"/></symbol><symbol fill="currentColor" viewBox="0 0 24 24" id="pinterest"><path fill-rule="evenodd" clip-rule="evenodd" d="M12 24C5.373 24 0 18.627 0 12S5.373 0 12 0s12 5.373 12 12-5.373 12-12 12ZM6 12c0-3.3 2.7-6 6-6s6 2.7 5.925 5.7c0 3.3-2.7 6-6 6-.6 0-1.2-.075-1.725-.225.225-.375.45-.825.6-1.275.075-.3.45-1.65.45-1.65.225.375.825.75 1.5.75 1.95 0 3.225-1.8 3.225-4.125 0-1.8-1.5-3.45-3.825-3.45-2.85 0-4.275 2.025-4.275 3.75 0 1.05.375 1.95 1.2 2.325.15.075.225 0 .3-.15.075-.075.15-.375.15-.45.053-.106.031-.137-.013-.2a.728.728 0 0 1-.062-.1c-.225-.3-.375-.675-.375-1.2 0-1.5 1.125-2.85 2.925-2.85 1.575 0 2.475.975 2.475 2.325 0 1.8-.75 3.225-1.875 3.225-.675 0-1.125-.525-.975-1.125.063-.313.164-.64.262-.951.136-.435.263-.843.263-1.149 0-.525-.3-.9-.825-.9-.6 0-1.125.675-1.125 1.575 0 .6.225.975.225.975s-.6 2.775-.75 3.3c-.075.45-.075.9-.075 1.35-2.1-.9-3.6-3-3.6-5.475Z"/></symbol><symbol fill="currentColor" viewBox="0 0 20 20" id="placeholder"><path fill-rule="evenodd" clip-rule="evenodd" d="M16 1.5H4A2.5 2.5 0 0 0 1.5 4v12A2.5 2.5 0 0 0 4 18.5h12a2.5 2.5 0 0 0 2.5-2.5V4A2.5 2.5 0 0 0 16 1.5ZM4 0a4 4 0 0 0-4 4v12a4 4 0 0 0 4 4h12a4 4 0 0 0 4-4V4a4 4 0 0 0-4-4H4Zm.47 4.47a.75.75 0 0 1 1.06 0L10 8.94l4.47-4.47a.75.75 0 1 1 1.06 1.06L11.06 10l4.47 4.47a.75.75 0 1 1-1.06 1.06L10 11.06l-4.47 4.47a.75.75 0 0 1-1.06-1.06L8.94 10 4.47 5.53a.75.75 0 0 1 0-1.06Z"/></symbol><symbol fill="currentColor" viewBox="0 0 20 20" id="play"><path d="M5 3.723a1 1 0 0 1 1.496-.868l10.985 6.277a1 1 0 0 1 0 1.736L6.496 17.145A1 1 0 0 1 5 16.277V3.723Z"/></symbol><symbol fill="currentColor" viewBox="0 0 18 18" id="plus"><path fill-rule="evenodd" clip-rule="evenodd" d="M2.325 9c0-.373.302-.675.675-.675h12a.675.675 0 1 1 0 1.35H3A.675.675 0 0 1 2.325 9Z"/><path fill-rule="evenodd" clip-rule="evenodd" d="M9 2.325c.373 0 .675.302.675.675v12a.675.675 0 1 1-1.35 0V3c0-.373.302-.675.675-.675Z"/></symbol><symbol fill="currentColor" viewBox="0 0 20 20" id="send"><path fill-rule="evenodd" clip-rule="evenodd" d="M16.22 3.776c-.402-.403-1.27-.647-2.741-.156L6.405 5.978c-1.142.382-1.94.806-2.437 1.217-.5.413-.62.744-.62.958 0 .214.12.544.62.957.496.41 1.294.832 2.435 1.212l2.1.7c.225.075.4.25.475.474l.7 2.1c.38 1.142.803 1.94 1.213 2.436.413.5.744.62.959.62.215 0 .546-.12.959-.62.41-.497.833-1.294 1.213-2.435l2.358-7.074c.486-1.472.244-2.343-.16-2.747Zm1.062-1.06c.99.992 1.085 2.575.522 4.278v.002l-2.359 7.074c-.412 1.238-.908 2.225-1.48 2.917-.57.69-1.284 1.165-2.115 1.165-.83 0-1.545-.475-2.115-1.165-.572-.692-1.068-1.68-1.48-2.917l-.581-1.744-1.744-.581c-1.238-.412-2.225-.907-2.917-1.478-.69-.57-1.165-1.283-1.165-2.114 0-.83.475-1.545 1.164-2.115.693-.572 1.68-1.069 2.917-1.483l7.075-2.358c1.704-.568 3.287-.474 4.278.519Z"/><path fill-rule="evenodd" clip-rule="evenodd" d="M11.938 7.852a.75.75 0 0 1 .001 1.06l-2.983 2.993a.75.75 0 1 1-1.062-1.06l2.983-2.991a.75.75 0 0 1 1.06-.002Z"/></symbol><symbol fill="currentColor" viewBox="0 0 24 24" id="telegram"><path fill-rule="evenodd" clip-rule="evenodd" d="M12 24C5.373 24 0 18.627 0 12S5.373 0 12 0s12 5.373 12 12-5.373 12-12 12Zm.519-14.994a526.069 526.069 0 0 0-6.444 2.775c-.523.208-.797.412-.822.61-.042.337.379.47.952.65l.242.077c.564.183 1.323.397 1.718.406.358.008.757-.14 1.198-.443 3.01-2.031 4.563-3.058 4.66-3.08.07-.016.165-.035.23.022.064.057.058.166.05.195-.04.178-1.694 1.715-2.55 2.51-.266.248-.455.424-.494.464-.086.09-.175.175-.26.257-.524.505-.917.884.022 1.503.451.297.813.543 1.173.789.393.267.785.535 1.293.867.13.085.253.173.373.26.458.325.87.619 1.378.572.295-.027.6-.305.755-1.133.366-1.957 1.085-6.197 1.252-7.944a1.954 1.954 0 0 0-.019-.435.465.465 0 0 0-.157-.3c-.133-.107-.337-.13-.428-.128-.416.007-1.053.23-4.122 1.506Z"/></symbol><symbol fill="currentColor" viewBox="0 0 20 20" id="user"><path fill-rule="evenodd" clip-rule="evenodd" d="M10 2.417a3.417 3.417 0 1 0 0 6.833 3.417 3.417 0 0 0 0-6.833ZM5.083 5.833a4.917 4.917 0 1 1 9.834 0 4.917 4.917 0 0 1-9.834 0ZM2.092 18.333c0-3.775 3.695-6.583 7.908-6.583 4.213 0 7.908 2.807 7.908 6.583a.75.75 0 0 1-1.5 0c0-2.674-2.72-5.083-6.408-5.083-3.687 0-6.408 2.41-6.408 5.083a.75.75 0 0 1-1.5 0Z"/></symbol><symbol fill="currentColor" viewBox="0 0 20 20" id="user_circle"><path fill-rule="evenodd" clip-rule="evenodd" d="M10 5.942a1.98 1.98 0 0 0-1.983 1.983c0 1.054.821 1.915 1.864 1.973.077-.006.16-.006.24 0A1.98 1.98 0 0 0 10 5.942ZM6.517 7.925A3.48 3.48 0 0 1 10 4.442a3.485 3.485 0 0 1 3.483 3.483v.004a3.48 3.48 0 0 1-3.357 3.47.744.744 0 0 1-.123-.005h-.01a.758.758 0 0 1-.119.006 3.474 3.474 0 0 1-3.357-3.475ZM6.275 14.623c-.586.396-.919.837-1.065 1.252A7.522 7.522 0 0 0 10 17.582c1.82 0 3.482-.638 4.79-1.708-.146-.415-.48-.857-1.066-1.252-.984-.658-2.33-1.01-3.718-1.01-1.387 0-2.738.352-3.73 1.01Zm3.731-2.51c1.616 0 3.27.405 4.553 1.264h.001c1.025.69 1.69 1.635 1.803 2.694a.75.75 0 0 1-.24.632A9.028 9.028 0 0 1 10 19.083c-2.362 0-4.507-.9-6.123-2.38a.75.75 0 0 1-.24-.632c.113-1.059.778-2.004 1.803-2.693l.003-.003c1.29-.857 2.948-1.262 4.563-1.262Z"/><path fill-rule="evenodd" clip-rule="evenodd" d="M10 2.417a7.583 7.583 0 1 0 0 15.166 7.583 7.583 0 0 0 0-15.166ZM.917 10a9.083 9.083 0 1 1 18.166 0A9.083 9.083 0 0 1 .917 10Z"/></symbol><symbol fill="currentColor" viewBox="0 0 20 20" id="wand"><path fill-rule="evenodd" clip-rule="evenodd" d="M13.22 3.22a2.515 2.515 0 0 1 3.56 0 2.515 2.515 0 0 1 0 3.56L5.947 17.614a2.516 2.516 0 0 1-3.56 0 2.515 2.515 0 0 1 0-3.561L13.22 3.22Zm2.5 1.06a1.015 1.015 0 0 0-1.44 0L3.447 15.114a1.015 1.015 0 0 0 0 1.439c.399.399 1.04.399 1.44 0L15.72 5.72a1.016 1.016 0 0 0 0-1.44Z"/><path fill-rule="evenodd" clip-rule="evenodd" d="M11.978 4.461a.75.75 0 0 1 1.06 0l2.5 2.5a.75.75 0 1 1-1.06 1.061l-2.5-2.5a.75.75 0 0 1 0-1.06ZM5.48 1.313a.5.5 0 0 1 .494-.126l1.11.325 1.109-.325a.5.5 0 0 1 .62.62l-.325 1.11.325 1.109a.5.5 0 0 1-.62.62l-1.11-.325-1.109.325a.5.5 0 0 1-.62-.62l.325-1.11-.325-1.109a.5.5 0 0 1 .126-.494Zm1.09 1.091.11.372a.5.5 0 0 1 0 .281l-.11.372.373-.109a.5.5 0 0 1 .281 0l.372.11-.11-.373a.5.5 0 0 1 0-.281l.11-.372-.372.11a.5.5 0 0 1-.281 0l-.372-.11ZM2.146 6.313a.5.5 0 0 1 .495-.126l1.109.325 1.11-.325a.5.5 0 0 1 .62.62l-.326 1.11.326 1.109a.5.5 0 0 1-.62.62l-1.11-.325-1.11.325a.5.5 0 0 1-.62-.62l.326-1.11-.326-1.109a.5.5 0 0 1 .126-.494Zm1.091 1.091.11.372a.5.5 0 0 1 0 .281l-.11.372.372-.109a.5.5 0 0 1 .282 0l.372.11-.11-.373a.5.5 0 0 1 0-.281l.11-.372-.372.11a.5.5 0 0 1-.282 0l-.372-.11ZM14.646 10.48a.5.5 0 0 1 .495-.127l1.109.326 1.11-.325a.5.5 0 0 1 .62.62l-.326 1.11.326 1.109a.5.5 0 0 1-.62.62l-1.11-.325-1.11.325a.5.5 0 0 1-.62-.62l.326-1.11-.326-1.109a.5.5 0 0 1 .126-.494Zm1.091 1.09.11.373a.5.5 0 0 1 0 .281l-.11.372.372-.11a.499.499 0 0 1 .282 0l.372.11-.11-.372a.501.501 0 0 1 0-.281l.11-.372-.372.109a.5.5 0 0 1-.282 0l-.372-.11Z"/></symbol><symbol fill="currentColor" viewBox="0 0 25 24" id="whatsapp"><path fill-rule="evenodd" clip-rule="evenodd" d="M12.5 24c-6.627 0-12-5.373-12-12s5.373-12 12-12 12 5.373 12 12-5.373 12-12 12Zm0-18c1.575 0 3.075.6 4.2 1.725s1.8 2.625 1.8 4.2c0 3.3-2.7 6-6 6-.975 0-1.95-.3-2.85-.75L6.5 18l.825-3a6.013 6.013 0 0 1-.825-3c0-3.3 2.7-6 6-6ZM9.95 16.275c.75.45 1.65.675 2.55.675 2.775 0 4.95-2.25 4.95-4.875 0-1.35-.45-2.55-1.425-3.525-.975-.9-2.175-1.425-3.525-1.425-2.7 0-4.95 2.25-4.95 4.95 0 .9.225 1.8.75 2.625l.15.225-.525 1.8L9.8 16.2l.15.075Zm4.2-3.525c.15 0 .9.375 1.05.45.023.012.047.022.07.031.125.053.242.102.305.419.075 0 .075.3-.075.675-.075.3-.675.675-.975.675-.05 0-.1.004-.152.009-.254.022-.589.052-1.648-.384-1.314-.526-2.226-1.8-2.482-2.158-.036-.05-.059-.083-.068-.092-.013-.025-.039-.066-.073-.12-.166-.262-.527-.833-.527-1.455 0-.75.375-1.125.525-1.275.15-.15.3-.15.375-.15h.3c.075 0 .225 0 .3.225.15.3.45 1.05.45 1.125 0 .025.008.05.017.075.016.05.033.1-.017.15-.037.038-.056.075-.075.113a.391.391 0 0 1-.075.112l-.225.225c-.075.075-.15.15-.075.3s.375.675.825 1.05c.506.443.906.619 1.108.708.038.017.069.03.092.042.15 0 .225 0 .3-.075.037-.075.131-.188.225-.3.094-.113.188-.225.225-.3.075-.15.15-.15.3-.075Z"/></symbol><symbol fill="currentColor" viewBox="0 0 24 24" id="x"><path fill-rule="evenodd" clip-rule="evenodd" d="M12 0C5.373 0 0 5.373 0 12s5.373 12 12 12 12-5.373 12-12S18.627 0 12 0ZM6.552 6.941h3.381l2.651 3.545 3.282-3.545h1.17l-3.929 4.244L17.5 17.06h-3.381l-2.882-3.853-3.567 3.853H6.5l4.214-4.553-4.162-5.565Zm1.719.861 6.279 8.396h1.23L9.503 7.802H8.27Z"/></symbol><symbol fill="currentColor" viewBox="0 0 24 24" id="youtube"><path d="m13.95 12-3.15-1.8v3.6l3.15-1.8Z"/><path fill-rule="evenodd" clip-rule="evenodd" d="M0 12C0 5.373 5.373 0 12 0s12 5.373 12 12-5.373 12-12 12S0 18.627 0 12Zm16.65-3.975c.525.15.9.525 1.05 1.05C18 10.05 18 12 18 12s0 1.95-.225 2.925c-.15.525-.525.9-1.05 1.05C15.75 16.2 12 16.2 12 16.2s-3.825 0-4.725-.225c-.525-.15-.9-.525-1.05-1.05C6 13.95 6 12 6 12s0-1.95.15-2.925c.15-.525.525-.9 1.05-1.05.975-.225 4.725-.225 4.725-.225s3.825 0 4.725.225Z"/></symbol></svg>