<svg width="139" height="91" viewBox="0 0 139 91" fill="none" xmlns="http://www.w3.org/2000/svg">
<rect x="0.5" y="0.5" width="138" height="90" rx="9.66" fill="white" stroke="#EFEFF5"/>
<g clip-path="url(#clip0_534_875)">
<rect width="9.99965" height="9.99962" transform="translate(78 75)" fill="white"/>
<path d="M82.8407 75.5073L85.5851 78.1906L84.9062 78.8591L83.3222 77.3056V81.8202H82.3592V77.3056L80.7703 78.8591L80.0914 78.1906L82.8407 75.5073ZM87.174 81.3494L87.1644 83.0018C87.1644 83.6514 86.6251 84.174 85.9607 84.174H79.711C79.0418 84.174 78.5073 83.6467 78.5073 82.9971V81.3494H79.4703V82.9971C79.4703 83.1289 79.5762 83.2325 79.711 83.2325H85.9607C86.0955 83.2325 86.2014 83.1289 86.2014 82.9971L86.2111 81.3494H87.174Z" fill="#333639" fill-opacity="0.6"/>
</g>
<path d="M63.6457 83.75V76.25H64.479V83.75H63.6457ZM67.4999 83.75V78.5417H68.3332V83.75H67.4999ZM61.6665 83.75L61.6682 79.5833H62.5015L62.4998 83.75H61.6665ZM65.5198 83.75V80.8333H66.3532V83.75H65.5198Z" fill="#333639" fill-opacity="0.6"/>
<path d="M48.9569 77.2916C48.4477 77.2666 47.8407 77.5041 47.3361 78.1916L47.0006 78.6457L46.6648 78.1916C46.1598 77.5041 45.5523 77.2666 45.0431 77.2916C44.5252 77.3207 44.0644 77.6166 43.8306 78.0874C43.6006 78.5541 43.5669 79.2457 44.0302 80.0957C44.4777 80.9166 45.3873 81.8749 47.0006 82.8499C48.6132 81.8749 49.5223 80.9166 49.9698 80.0957C50.4327 79.2457 50.399 78.5541 50.1686 78.0874C49.9348 77.6166 49.4744 77.3207 48.9569 77.2916ZM50.7015 80.4957C50.1386 81.5291 49.0344 82.6291 47.2102 83.6916L47.0006 83.8166L46.7906 83.6916C44.9661 82.6291 43.8619 81.5291 43.2981 80.4957C42.7315 79.4541 42.7106 78.4707 43.084 77.7166C43.4536 76.9707 44.1869 76.5041 45.0011 76.4624C45.689 76.4249 46.4044 76.6957 47.0002 77.2999C47.5956 76.6957 48.3111 76.4249 48.9986 76.4624C49.8127 76.5041 50.5461 76.9707 50.9157 77.7166C51.289 78.4707 51.2682 79.4541 50.7015 80.4957Z" fill="#333639" fill-opacity="0.6"/>
<path d="M25.875 76.6167L27.7217 78.3417L27.1533 78.95L26.2917 78.1459V81.6667C26.2917 82.125 26.665 82.5 27.125 82.5H29.4167V83.3334H27.125C26.2046 83.3334 25.4583 82.5875 25.4583 81.6667V78.1459L24.5967 78.95L24.0283 78.3417L25.875 76.6167ZM30.875 77.5H28.5833V76.6667H30.875C31.7954 76.6667 32.5417 77.4125 32.5417 78.3334V81.8542L33.4033 81.05L33.9717 81.6584L32.125 83.3834L30.2783 81.6584L30.8467 81.05L31.7083 81.8542V78.3334C31.7083 77.875 31.335 77.5 30.875 77.5Z" fill="#333639" fill-opacity="0.6"/>
<g clip-path="url(#clip1_534_875)">
<path d="M6.72949 79.1666C6.72949 77.3249 8.22283 75.8333 10.0649 75.8333H11.8841C13.7549 75.8333 15.2712 77.3499 15.2712 79.2207C15.2712 80.4541 14.6016 81.5874 13.5228 82.1832L10.167 84.0416V82.5041H10.1391C8.26824 82.5457 6.72949 81.0416 6.72949 79.1666ZM10.0649 76.6666C8.68283 76.6666 7.56283 77.7874 7.56283 79.1666C7.56283 80.5707 8.71699 81.6999 10.1203 81.6707L10.2666 81.6666H11.0003V82.6249L13.1199 81.4541C13.9328 81.0041 14.4378 80.1499 14.4378 79.2207C14.4378 77.8082 13.2945 76.6666 11.8841 76.6666H10.0649Z" fill="#333639" fill-opacity="0.6"/>
</g>
<rect opacity="0.07" x="6" y="6" width="127" height="63" rx="5.08" fill="black"/>
<path fill-rule="evenodd" clip-rule="evenodd" d="M67.3695 30.9197H63.0658L68.3632 38.0028L63 43.7967H64.489L69.0285 38.8925L72.6964 43.7967H77L71.409 36.321L76.4087 30.9197H74.9197L70.7437 35.4313L67.3695 30.9197ZM73.2452 42.7006L65.2538 32.0156H66.8204L74.8117 42.7006H73.2452Z" fill="black"/>
<defs>
<clipPath id="clip0_534_875">
<rect width="9.99965" height="9.99962" fill="white" transform="translate(78 75)"/>
</clipPath>
<clipPath id="clip1_534_875">
<rect width="10" height="9.99997" fill="white" transform="translate(6 75)"/>
</clipPath>
</defs>
</svg>
