<svg width="139" height="100" viewBox="0 0 139 100" fill="none" xmlns="http://www.w3.org/2000/svg">
<rect x="0.5" y="0.5" width="138" height="99" rx="9.66" fill="white" stroke="#EFEFF5"/>
<rect x="22" y="86" width="24" height="0.63" rx="0.315" fill="#333639" fill-opacity="0.6"/>
<rect x="50" y="86" width="14" height="0.63" rx="0.315" fill="#333639" fill-opacity="0.6"/>
<rect x="22" y="91" width="14" height="0.63" rx="0.315" fill="#333639" fill-opacity="0.6"/>
<rect opacity="0.07" x="6" y="6" width="127" height="72" rx="5.08" fill="#FF0000"/>
<path d="M78.5293 37.082C78.3116 36.2625 77.6704 35.6171 76.8561 35.3981C75.3804 35 69.4624 35 69.4624 35C69.4624 35 63.5444 35 62.0686 35.3981C61.2543 35.6171 60.6129 36.2625 60.3954 37.082C60 38.5674 60 41.6667 60 41.6667C60 41.6667 60 44.7658 60.3954 46.2514C60.6129 47.071 61.2543 47.7162 62.0686 47.9355C63.5444 48.3334 69.4623 48.3334 69.4623 48.3334C69.4623 48.3334 75.3803 48.3334 76.856 47.9355C77.6704 47.7163 78.3116 47.071 78.5292 46.2515C78.9247 44.7659 78.9247 41.6668 78.9247 41.6668C78.9247 41.6668 78.9247 38.5675 78.5292 37.0821" fill="#FF0000"/>
<path d="M67.5269 44.4808L72.4731 41.6671L67.5269 38.853V44.4808Z" fill="white"/>
<path fill-rule="evenodd" clip-rule="evenodd" d="M13.4799 92.5987C12.7753 93.0851 11.9209 93.37 11 93.37C10.0791 93.37 9.22465 93.0851 8.5201 92.5987C9.04169 91.6894 10.0188 91.1177 10.9827 91.111L11 91.111L11.0172 91.111C11.9812 91.1177 12.9583 91.6894 13.4799 92.5987ZM13.9759 92.2001C13.5487 91.5013 12.8947 90.9727 12.1599 90.6963C12.5684 90.3608 12.829 89.8518 12.829 89.2819C12.829 88.2718 12.0101 87.4528 11 87.4528C9.9898 87.4528 9.17091 88.2718 9.17091 89.2819C9.17091 89.8518 9.43153 90.3608 9.84007 90.6963C9.10528 90.9727 8.45124 91.5013 8.02404 92.2001C7.16644 91.4022 6.63 90.2638 6.63 89C6.63 86.5865 8.58652 84.63 11 84.63C13.4135 84.63 15.37 86.5865 15.37 89C15.37 90.2638 14.8336 91.4022 13.9759 92.2001ZM16 89C16 91.7614 13.7614 94 11 94C8.23858 94 6 91.7614 6 89C6 86.2386 8.23858 84 11 84C13.7614 84 16 86.2386 16 89ZM11 88.0828C10.3378 88.0828 9.80091 88.6197 9.80091 89.2819C9.80091 89.939 10.3293 90.4725 10.9843 90.4809L11 90.4809L11.0157 90.4809C11.6706 90.4725 12.199 89.9389 12.199 89.2819C12.199 88.6197 11.6622 88.0828 11 88.0828Z" fill="#333639" fill-opacity="0.6"/>
</svg>
