<svg width="178" height="43" viewBox="0 0 178 43" fill="none" xmlns="http://www.w3.org/2000/svg">
<path d="M53.6621 30.828H66.1947V27.0532H58.1165V12.8345H53.6621V30.828Z" fill="#316ABF"/>
<path d="M73.6198 28.3115C71.833 28.3115 70.9019 26.7512 70.9019 24.4108C70.9019 22.0703 71.833 20.4849 73.6198 20.4849C75.4065 20.4849 76.3628 22.0703 76.3628 24.4108C76.3628 26.7512 75.4065 28.3115 73.6198 28.3115ZM73.6449 31.2307C77.7973 31.2307 80.5152 28.2863 80.5152 24.4108C80.5152 20.5352 77.7973 17.5908 73.6449 17.5908C69.5178 17.5908 66.7495 20.5352 66.7495 24.4108C66.7495 28.2863 69.5178 31.2307 73.6449 31.2307Z" fill="#316ABF"/>
<path d="M87.7021 35.2824C89.6147 35.2824 91.3008 34.8546 92.4332 33.848C93.465 32.9168 94.1445 31.5075 94.1445 29.5698V17.9432H90.2186V19.3273H90.1683C89.4133 18.2452 88.2557 17.5657 86.5444 17.5657C83.3484 17.5657 81.1338 20.2333 81.1338 24.0081C81.1338 27.9592 83.8265 30.1234 86.7206 30.1234C88.2809 30.1234 89.2623 29.4943 90.0173 28.6386H90.118V29.9221C90.118 31.4824 89.3882 32.3883 87.6517 32.3883C86.2928 32.3883 85.6133 31.8095 85.3868 31.1301H81.4106C81.8133 33.8228 84.1537 35.2824 87.7021 35.2824ZM87.6769 27.0784C86.1418 27.0784 85.1352 25.8201 85.1352 23.8823C85.1352 21.9194 86.1418 20.6611 87.6769 20.6611C89.3882 20.6611 90.2941 22.1207 90.2941 23.8571C90.2941 25.6691 89.4637 27.0784 87.6769 27.0784Z" fill="#316ABF"/>
<path d="M102.217 28.3115C100.43 28.3115 99.499 26.7512 99.499 24.4108C99.499 22.0703 100.43 20.4849 102.217 20.4849C104.004 20.4849 104.96 22.0703 104.96 24.4108C104.96 26.7512 104.004 28.3115 102.217 28.3115ZM102.242 31.2307C106.394 31.2307 109.112 28.2863 109.112 24.4108C109.112 20.5352 106.394 17.5908 102.242 17.5908C98.1149 17.5908 95.3467 20.5352 95.3467 24.4108C95.3467 28.2863 98.1149 31.2307 102.242 31.2307Z" fill="#316ABF"/>
<path d="M110.311 30.828H114.413V17.9431H110.311V30.828ZM110.311 16.1564H114.413V12.8345H110.311V16.1564Z" fill="#316ABF"/>
<path d="M116.192 35.0811H120.294V29.4943H120.344C121.15 30.5764 122.332 31.2307 123.993 31.2307C127.366 31.2307 129.605 28.5631 129.605 24.3856C129.605 20.5101 127.516 17.5657 124.094 17.5657C122.332 17.5657 121.074 18.3458 120.193 19.5034H120.118V17.9432H116.192V35.0811ZM122.936 28.0598C121.175 28.0598 120.168 26.6254 120.168 24.5366C120.168 22.4478 121.074 20.8624 122.861 20.8624C124.622 20.8624 125.453 22.322 125.453 24.5366C125.453 26.726 124.497 28.0598 122.936 28.0598Z" fill="#316ABF"/>
<path d="M136.284 31.2307C139.656 31.2307 142.147 29.7711 142.147 26.9525C142.147 23.6558 139.48 23.077 137.215 22.6995C135.579 22.3975 134.12 22.2717 134.12 21.3657C134.12 20.5604 134.9 20.1829 135.906 20.1829C137.039 20.1829 137.819 20.5352 137.97 21.6929H141.745C141.544 19.1511 139.581 17.5657 135.932 17.5657C132.886 17.5657 130.37 18.975 130.37 21.6929C130.37 24.7128 132.761 25.3167 135 25.6942C136.712 25.9962 138.272 26.1221 138.272 27.2797C138.272 28.1101 137.492 28.5631 136.259 28.5631C134.9 28.5631 134.044 27.934 133.893 26.6505H130.018C130.143 29.4943 132.509 31.2307 136.284 31.2307Z" fill="#316ABF"/>
<path d="M147.72 31.2055C149.507 31.2055 150.639 30.5009 151.57 29.2426H151.646V30.828H155.572V17.9431H151.469V25.1405C151.469 26.6757 150.614 27.7326 149.205 27.7326C147.896 27.7326 147.267 26.9525 147.267 25.5432V17.9431H143.19V26.3988C143.19 29.2677 144.75 31.2055 147.72 31.2055Z" fill="#316ABF"/>
<path d="M157.356 30.8281H161.458V23.6055C161.458 22.0704 162.213 20.9882 163.496 20.9882C164.73 20.9882 165.308 21.7935 165.308 23.1777V30.8281H169.41V23.6055C169.41 22.0704 170.14 20.9882 171.449 20.9882C172.682 20.9882 173.261 21.7935 173.261 23.1777V30.8281H177.363V22.4478C177.363 19.5538 175.903 17.5657 172.984 17.5657C171.323 17.5657 169.939 18.2703 168.932 19.8306H168.882C168.228 18.4465 166.944 17.5657 165.258 17.5657C163.396 17.5657 162.163 18.4465 161.357 19.7803H161.282V17.9432H157.356V30.8281Z" fill="#316ABF"/>
<path fill-rule="evenodd" clip-rule="evenodd" d="M20.9714 42.3624C32.5538 42.3624 41.9429 32.9732 41.9429 21.3909C41.9429 9.8087 32.5538 0.419434 20.9714 0.419434C9.38924 0.419434 0 9.8087 0 21.3909C0 32.9732 9.38924 42.3624 20.9714 42.3624ZM24.2084 16.6226C25.996 14.8349 25.996 11.9365 24.2084 10.1488C22.4207 8.36112 19.5223 8.36112 17.7346 10.1488C15.947 11.9365 15.947 14.8349 17.7346 16.6226L20.9714 19.8595L24.2084 16.6226ZM25.7398 24.6279C27.5276 26.4156 30.4259 26.4156 32.2136 24.6279C34.0012 22.8401 34.0012 19.9418 32.2136 18.1541C30.4259 16.3664 27.5276 16.3664 25.7398 18.1541L22.503 21.391L25.7398 24.6279ZM24.2084 32.6331C25.996 30.8454 25.996 27.947 24.2084 26.1593L20.9714 22.9225L17.7346 26.1593C15.947 27.947 15.947 30.8454 17.7346 32.6331C19.5223 34.4208 22.4207 34.4208 24.2084 32.6331ZM9.72933 24.6279C7.94168 22.8401 7.94168 19.9418 9.72933 18.1541C11.5171 16.3664 14.4154 16.3664 16.2032 18.1541L19.44 21.391L16.2032 24.6279C14.4154 26.4156 11.5171 26.4156 9.72933 24.6279Z" fill="#316ABF"/>
</svg>
