<svg width="163" height="43" viewBox="0 0 163 43" fill="none" xmlns="http://www.w3.org/2000/svg">
<path fill-rule="evenodd" clip-rule="evenodd" d="M25.4781 1.17257C23.9135 -0.391308 21.3775 -0.390794 19.8136 1.17373L6.76184 14.2309L6.75071 14.2276L6.70947 14.232C6.72646 14.2402 6.74313 14.2483 6.75947 14.2564C4.46991 14.4963 3.49849 15.1843 3.48749 16.0679C3.49136 16.3966 3.62621 16.7515 3.87391 17.12L3.862 17.1319C5.94344 20.2713 16.2548 24.4125 23.5498 21.6067C18.0825 24.3403 5.20668 24.8821 1.42485 19.5744C0.603552 20.4629 0.259927 21.6305 0.389331 22.7526C1.38839 28.2591 12.5579 29.7614 23.7275 21.7831L26.1445 24.2002C23.1369 27.2902 18.6942 45.2387 25.2955 42.4983C25.4521 42.392 25.585 42.2969 25.7658 42.1601L26.06 41.8823C26.043 41.8865 26.0262 41.8905 26.0094 41.8945L43.6892 25.2037C45.3308 23.6539 45.368 21.0544 43.7712 19.4583L25.4781 1.17257ZM23.5528 6.61194L24.157 4.1949L24.7612 6.61194L26.5741 7.2162L24.7612 7.82048L24.157 10.2375L23.5528 7.82048L21.74 7.2162L23.5528 6.61194ZM16.0735 14.5023L16.4763 12.8909L16.8792 14.5023L18.0877 14.9051L16.8792 15.3079L16.4763 16.9193L16.0735 15.3079L14.8651 14.9051L16.0735 14.5023ZM30.1038 28.0941L29.701 29.7053L28.4925 30.1083L29.701 30.5111L30.1038 32.1224L30.5067 30.5111L31.7152 30.1083L30.5067 29.7053L30.1038 28.0941Z" fill="#EF5656"/>
<path d="M55.1122 10.1292H51.3604V27.0582H61.7466V23.741H55.1122V10.1292Z" fill="#EF5656"/>
<path d="M62.105 21.3159C62.105 24.9305 64.53 27.3326 68.1903 27.3326C71.8278 27.3326 74.2527 24.9305 74.2527 21.3159C74.2527 17.7013 71.8278 15.2764 68.1903 15.2764C64.53 15.2764 62.105 17.7013 62.105 21.3159ZM65.651 21.2931C65.651 19.5772 66.6575 18.4334 68.1903 18.4334C69.7002 18.4334 70.7068 19.5772 70.7068 21.2931C70.7068 23.0317 69.7002 24.1756 68.1903 24.1756C66.6575 24.1756 65.651 23.0317 65.651 21.2931Z" fill="#EF5656"/>
<path d="M74.8191 21.1329C74.8191 24.5873 77.0611 26.9208 80.241 26.9208C81.7738 26.9208 83.1007 26.3717 83.7641 25.4796V27.0581C83.7641 28.6366 82.7804 29.689 81.0417 29.689C79.486 29.689 78.4109 28.9569 78.3422 27.6529H74.7734C75.0936 30.7871 77.5186 32.8918 80.8358 32.8918C84.7479 32.8918 87.2185 30.3524 87.2185 26.3259V15.6195H84.0386L83.8556 16.7862C83.215 15.8482 81.8653 15.2306 80.3097 15.2306C77.1069 15.2306 74.8191 17.6327 74.8191 21.1329ZM78.388 21.0414C78.388 19.3943 79.4861 18.2961 80.8816 18.2961C82.5058 18.2961 83.6955 19.3713 83.6955 21.0414C83.6955 22.7114 82.5288 23.8553 80.9045 23.8553C79.509 23.8553 78.388 22.7114 78.388 21.0414Z" fill="#EF5656"/>
<path d="M88.2456 21.3159C88.2456 24.9305 90.6705 27.3326 94.3309 27.3326C97.9684 27.3326 100.393 24.9305 100.393 21.3159C100.393 17.7013 97.9684 15.2764 94.3309 15.2764C90.6705 15.2764 88.2456 17.7013 88.2456 21.3159ZM91.7915 21.2931C91.7915 19.5772 92.7982 18.4334 94.3309 18.4334C95.8408 18.4334 96.8473 19.5772 96.8473 21.2931C96.8473 23.0317 95.8408 24.1756 94.3309 24.1756C92.7982 24.1756 91.7915 23.0317 91.7915 21.2931Z" fill="#EF5656"/>
<path d="M103.431 13.8352C104.529 13.8352 105.421 12.943 105.421 11.822C105.421 10.701 104.529 9.83167 103.431 9.83167C102.31 9.83167 101.417 10.701 101.417 11.822C101.417 12.943 102.31 13.8352 103.431 13.8352ZM101.646 27.0582H105.193V15.6196H101.646V27.0582Z" fill="#EF5656"/>
<path d="M107.256 32.5487H110.733V25.9143C111.397 26.7837 112.906 27.3785 114.486 27.3785C117.894 27.3785 119.953 24.7705 119.861 21.1559C119.77 17.4726 117.643 15.2535 114.463 15.2535C112.838 15.2535 111.306 15.9627 110.665 17.0151L110.482 15.6196H107.256V32.5487ZM110.802 21.3388C110.802 19.6231 111.946 18.4793 113.594 18.4793C115.263 18.4793 116.316 19.646 116.316 21.3388C116.316 23.0318 115.263 24.1985 113.594 24.1985C111.946 24.1985 110.802 23.0547 110.802 21.3388Z" fill="#EF5656"/>
<path d="M120.237 23.4436C120.328 25.7542 122.159 27.3555 125.042 27.3555C127.81 27.3555 129.732 25.8914 129.732 23.5351C129.732 21.8422 128.724 20.7212 126.848 20.2637L124.812 19.7603C124.08 19.5773 123.623 19.3944 123.623 18.7996C123.623 18.2048 124.103 17.8158 124.812 17.8158C125.614 17.8158 126.139 18.342 126.116 19.1199H129.297C129.205 16.7406 127.398 15.2535 124.881 15.2535C122.341 15.2535 120.444 16.7634 120.444 19.0511C120.444 20.584 121.29 21.8422 123.554 22.437L125.567 22.9631C126.162 23.1233 126.414 23.3978 126.414 23.7868C126.414 24.3587 125.888 24.7247 124.996 24.7247C123.966 24.7247 123.417 24.2443 123.417 23.4436H120.237Z" fill="#EF5656"/>
<path d="M135.123 27.3554C136.52 27.3554 137.915 26.715 138.624 25.7769L138.853 27.0581H142.17V15.6195H138.647V21.5676C138.647 23.2833 138.143 24.2214 136.52 24.2214C135.261 24.2214 134.437 23.6494 134.437 21.5218V15.6195H130.914V22.8029C130.914 25.5253 132.424 27.3554 135.123 27.3554Z" fill="#EF5656"/>
<path d="M147.757 27.0581V20.8126C147.757 18.8909 148.787 18.3418 149.793 18.3418C150.914 18.3418 151.646 19.0282 151.646 20.4466V27.0581H155.124V20.8126C155.124 18.868 156.13 18.319 157.137 18.319C158.257 18.319 159.013 19.0053 159.013 20.4466V27.0581H162.445V19.5772C162.445 16.9692 161.072 15.2306 158.12 15.2306C156.474 15.2306 155.124 16.0313 154.529 17.2666C153.843 16.0313 152.653 15.2306 150.754 15.2306C149.496 15.2306 148.329 15.8025 147.643 16.7176L147.506 15.6195H144.211V27.0581H147.757Z" fill="#EF5656"/>
<path fill-rule="evenodd" clip-rule="evenodd" d="M45.0507 2.77209C41.271 2.77209 37.6866 4.45096 35.2668 7.35462L26.6584 17.6849L31.6293 10.2284L23.378 13.7647C22.3301 14.2138 22.0672 15.5791 22.8732 16.3853L25.5286 19.0405L24.1728 20.6674L27.1555 23.6499L28.7823 22.2942L31.4376 24.9495C32.2436 25.7556 33.609 25.4927 34.058 24.4449L37.5943 16.1936L30.138 21.1645L40.4682 12.5559C43.3719 10.1363 45.0507 6.55181 45.0507 2.77209ZM36.8488 10.9743C37.6723 11.7978 39.0076 11.7978 39.8313 10.9743C40.6549 10.1506 40.6549 8.81531 39.8313 7.99175C39.0076 7.1681 37.6723 7.1681 36.8488 7.99175C36.0251 8.81531 36.0251 10.1506 36.8488 10.9743Z" fill="#FF9B9B"/>
<path opacity="0.6" d="M1.3291 19.4355C3.3039 26.2014 15.3103 25.8487 23.5477 21.6077C18.0318 24.364 4.98344 24.8904 1.3291 19.4355Z" fill="#EF5656"/>
<path opacity="0.6" d="M25.2956 42.4984C19.7331 44.8075 22.0123 32.427 24.6667 26.6245C22.7318 31.782 21.0801 43.1515 26.0601 41.8825L25.7659 42.1602C25.5851 42.297 25.4522 42.3921 25.2956 42.4984Z" fill="#EF5656"/>
</svg>
