<svg width="178" height="37" viewBox="0 0 178 37" fill="none" xmlns="http://www.w3.org/2000/svg">
<path d="M25.6456 30.0399L1.85414 13.6286C-0.556836 11.9656 0.262737 8.50291 3.26916 7.68865L28.5552 0.82572C29.0909 0.632444 29.6648 0.569703 30.2296 0.642709C30.7943 0.715714 31.3335 0.922358 31.8025 1.24549C32.2713 1.56863 32.6564 1.99893 32.9256 2.50068C33.1948 3.00244 33.3406 3.56118 33.3506 4.13053L31.8521 27.4035C31.6744 30.1659 28.0566 31.7029 25.6456 30.0399Z" fill="#3DC964"/>
<path d="M18.0995 34.0915L4.08322 6.68095C3.76282 6.05389 3.62183 5.3505 3.67579 4.64839C3.72976 3.94627 3.97658 3.2727 4.38903 2.70196C4.8015 2.13121 5.36357 1.68546 6.01327 1.41386C6.66298 1.14226 7.37506 1.05537 8.07101 1.16278L34.0467 5.17177C34.6447 5.26409 35.2123 5.49703 35.7028 5.85145C36.1932 6.20588 36.5925 6.67166 36.868 7.21049C37.1433 7.74933 37.2869 8.34583 37.2868 8.95096C37.2867 9.55607 37.1429 10.1525 36.8675 10.6913L24.9014 34.0928C24.5801 34.7181 24.0926 35.2427 23.4925 35.6089C22.8924 35.9752 22.2031 36.1688 21.5001 36.1687C20.7971 36.1685 20.1077 35.9746 19.5078 35.6082C18.9078 35.2417 18.4206 34.7169 18.0995 34.0915Z" fill="#23A046"/>
<path d="M33.2868 5.05359L20.338 3.05505L4.43994 7.37173L10.7857 19.786L25.6454 30.0399C25.9732 30.2637 26.3338 30.435 26.7143 30.5479L32.3584 19.5101L33.2868 5.05359Z" fill="#3DC964"/>
<path d="M98.8755 8.25761C98.8755 7.77631 99.0182 7.30582 99.2855 6.90562C99.553 6.50544 99.9331 6.19352 100.378 6.00933C100.822 5.82515 101.312 5.77696 101.784 5.87085C102.256 5.96476 102.689 6.19653 103.03 6.53686C103.37 6.87719 103.602 7.31081 103.696 7.78286C103.79 8.25492 103.741 8.74423 103.557 9.18889C103.373 9.63355 103.061 10.0136 102.661 10.281C102.261 10.5484 101.79 10.6911 101.309 10.6911C100.666 10.6846 100.05 10.4261 99.5955 9.97113C99.1406 9.51616 98.882 8.90099 98.8755 8.25761ZM99.2813 11.8807H103.338V25.3997H99.2813V11.8807Z" fill="#3DC964"/>
<path d="M120.856 18.6402C120.904 19.5337 120.774 20.4278 120.474 21.271C120.174 22.1141 119.711 22.8897 119.111 23.5532C118.51 24.2166 117.784 24.7547 116.975 25.1368C116.166 25.5187 115.289 25.737 114.395 25.7789C113.644 25.8198 112.892 25.693 112.195 25.4077C111.498 25.1223 110.874 24.6856 110.366 24.1292V30.8078H106.311V11.8807H110.366V13.1511C110.874 12.5948 111.498 12.1584 112.195 11.8732C112.892 11.5882 113.644 11.4616 114.395 11.5027C115.289 11.5444 116.166 11.7625 116.975 12.1443C117.784 12.5263 118.51 13.0643 119.11 13.7276C119.711 14.391 120.174 15.1664 120.474 16.0096C120.774 16.8526 120.904 17.7466 120.856 18.6402ZM116.801 18.6402C116.785 18.0072 116.583 17.393 116.22 16.8744C115.856 16.3558 115.348 15.9559 114.759 15.7247C114.169 15.4934 113.525 15.4413 112.906 15.5746C112.287 15.7079 111.721 16.0207 111.279 16.474C110.837 16.9273 110.538 17.501 110.421 18.1231C110.303 18.7452 110.372 19.3883 110.618 19.9716C110.864 20.555 111.276 21.0529 111.804 21.403C112.332 21.7531 112.951 21.9397 113.584 21.9397C114.019 21.9593 114.453 21.8866 114.857 21.7267C115.262 21.5666 115.628 21.3227 115.932 21.0112C116.236 20.6996 116.47 20.3273 116.62 19.9186C116.77 19.51 116.832 19.0742 116.801 18.6402Z" fill="#3DC964"/>
<path d="M133.374 21.3416C133.374 24.4514 130.67 25.7763 127.75 25.7763C126.57 25.883 125.386 25.6333 124.35 25.0595C123.313 24.4858 122.473 23.6142 121.938 22.5577L125.452 20.5578C125.595 21.0462 125.901 21.4707 126.319 21.7604C126.738 22.05 127.243 22.1873 127.75 22.1492C128.724 22.1492 129.209 21.8508 129.209 21.3111C129.209 19.8231 122.558 20.6082 122.558 15.9295C122.558 12.9827 125.045 11.4961 127.863 11.4961C128.92 11.4629 129.966 11.7137 130.893 12.2224C131.821 12.7311 132.594 13.4791 133.134 14.3885L129.674 16.2544C129.523 15.8995 129.271 15.597 128.948 15.3848C128.626 15.1725 128.249 15.0599 127.863 15.0608C127.16 15.0608 126.728 15.3261 126.728 15.8181C126.724 17.3697 133.374 16.3419 133.374 21.3416Z" fill="#3DC964"/>
<path d="M148.197 11.8807V25.3997H144.141V24.1266C143.673 24.6874 143.078 25.1293 142.405 25.4162C141.734 25.7029 141.004 25.8263 140.274 25.7763C137.544 25.7763 135.219 23.8295 135.219 20.1786V11.8807H139.274V19.5871C139.24 19.9094 139.277 20.2352 139.382 20.5418C139.486 20.8484 139.656 21.1286 139.88 21.3628C140.104 21.597 140.376 21.7795 140.677 21.8977C140.98 22.016 141.303 22.0669 141.627 22.0472C143.113 22.0472 144.147 21.1825 144.147 19.2622V11.8807H148.197Z" fill="#3DC964"/>
<path d="M171.442 17.0979V25.3997H167.387V17.4507C167.387 16.0993 166.737 15.2333 165.44 15.2333C164.087 15.2333 163.331 16.1802 163.331 17.7756V25.3997H159.274V17.4507C159.274 16.0993 158.626 15.2333 157.328 15.2333C155.976 15.2333 155.219 16.1802 155.219 17.7756V25.3997H151.164V11.8807H155.226V13.1194C155.646 12.5678 156.198 12.1305 156.83 11.8471C157.463 11.5638 158.158 11.4436 158.849 11.4975C159.542 11.4636 160.235 11.61 160.855 11.9227C161.476 12.2352 162.005 12.7032 162.391 13.2812C162.84 12.6766 163.436 12.1957 164.122 11.8838C164.807 11.5718 165.562 11.4389 166.312 11.4975C169.416 11.5028 171.442 13.7188 171.442 17.0979Z" fill="#3DC964"/>
<path d="M174.878 11.7972C176.541 11.7972 177.888 10.4494 177.888 8.78677C177.888 7.12418 176.541 5.77637 174.878 5.77637C173.215 5.77637 171.868 7.12418 171.868 8.78677C171.868 10.4494 173.215 11.7972 174.878 11.7972Z" fill="#3DC964"/>
<path d="M43.5049 5.66223H47.5616V25.3997H43.5049V5.66223ZM49.8586 18.6402C49.8542 17.2228 50.2703 15.836 51.0545 14.6554C51.8387 13.4748 52.9556 12.5533 54.2637 12.0079C55.572 11.4624 57.0124 11.3174 58.4032 11.5911C59.7938 11.8649 61.072 12.5451 62.0758 13.5458C63.0795 14.5464 63.7638 15.8223 64.0419 17.2122C64.32 18.602 64.1796 20.043 63.6382 21.3529C63.0969 22.6627 62.1791 23.7825 61.0009 24.5704C59.8227 25.3583 58.4373 25.779 57.0199 25.779C56.0785 25.7889 55.1447 25.6113 54.2727 25.2564C53.4009 24.9016 52.6084 24.3764 51.9417 23.7119C51.2749 23.0472 50.7474 22.2564 50.3897 21.3856C50.032 20.5149 49.8515 19.5815 49.8586 18.6402ZM60.1337 18.6402C60.1178 18.0287 59.9221 17.4356 59.5707 16.935C59.2196 16.4344 58.7285 16.0483 58.159 15.8253C57.5895 15.6023 56.967 15.5521 56.3691 15.6811C55.7713 15.81 55.2248 16.1125 54.7979 16.5504C54.371 16.9884 54.0828 17.5425 53.9691 18.1434C53.8556 18.7444 53.9217 19.3655 54.1593 19.9291C54.3968 20.4926 54.7954 20.9736 55.3049 21.3119C55.8144 21.6502 56.4123 21.8307 57.0238 21.831C57.4426 21.8429 57.8595 21.7678 58.2478 21.6107C58.6362 21.4537 58.9878 21.2177 59.2805 20.9179C59.5731 20.6182 59.8006 20.261 59.9483 19.869C60.096 19.4769 60.161 19.0585 60.139 18.6402H60.1337ZM80.3565 11.8767V24.7207C80.3565 29.2628 76.8143 31.1818 73.219 31.1818C71.9536 31.2773 70.6862 31.0225 69.5557 30.4453C68.4254 29.8683 67.4758 28.9911 66.811 27.9101L70.2709 25.9089C70.5502 26.4731 70.9952 26.9386 71.5462 27.2432C72.0972 27.5477 72.7279 27.6767 73.3543 27.6131C73.7541 27.6676 74.161 27.6318 74.545 27.508C74.9291 27.3843 75.2804 27.1761 75.5732 26.8984C75.8659 26.6208 76.0926 26.281 76.2364 25.904C76.3803 25.5271 76.4378 25.1226 76.4045 24.7207V23.4767C75.9294 24.0576 75.3248 24.5191 74.6393 24.8242C73.9537 25.1294 73.2061 25.2697 72.4565 25.2339C70.6721 25.1783 68.9793 24.4305 67.7366 23.1486C66.494 21.8668 65.7991 20.1516 65.7991 18.3663C65.7991 16.5809 66.494 14.8658 67.7366 13.5839C68.9793 12.302 70.6721 11.5542 72.4565 11.4987C73.2061 11.4628 73.9537 11.6031 74.6393 11.9083C75.3248 12.2134 75.9294 12.6749 76.4045 13.2559V11.8767H80.3565ZM76.4098 18.3657C76.4366 17.7127 76.2673 17.0667 75.924 16.5106C75.5807 15.9546 75.0788 15.5139 74.483 15.2453C73.8873 14.9768 73.2247 14.8926 72.5807 15.0036C71.9367 15.1146 71.3406 15.4156 70.869 15.8681C70.3975 16.3206 70.072 16.9037 69.9346 17.5425C69.7971 18.1815 69.8539 18.8468 70.0976 19.4533C70.3412 20.0596 70.7608 20.5792 71.3022 20.9452C71.8435 21.3112 72.4821 21.507 73.1355 21.5074C73.5616 21.5372 73.9893 21.4777 74.3909 21.3324C74.7926 21.1872 75.1595 20.9595 75.4679 20.6639C75.7763 20.3685 76.0195 20.0116 76.1817 19.6165C76.3439 19.2213 76.4216 18.7965 76.4098 18.3697V18.3657ZM82.6534 18.6309C82.649 17.2135 83.0652 15.8267 83.8493 14.6462C84.6335 13.4655 85.7504 12.5441 87.0585 11.9986C88.3668 11.4531 89.8073 11.3081 91.198 11.5819C92.5886 11.8556 93.8667 12.5358 94.8706 13.5366C95.8743 14.5372 96.5586 15.8131 96.8367 17.2029C97.1148 18.5927 96.9744 20.0337 96.4331 21.3436C95.8917 22.6534 94.9739 23.7733 93.7957 24.5611C92.6175 25.349 91.2321 25.7697 89.8147 25.7697C88.8742 25.7796 87.9411 25.6023 87.0698 25.248C86.1985 24.8937 85.4064 24.3694 84.7398 23.7058C84.0732 23.0421 83.5455 22.2525 83.1873 21.3827C82.829 20.513 82.6475 19.5807 82.6534 18.6402V18.6309ZM92.9285 18.6309C92.9129 18.0191 92.7171 17.4256 92.366 16.9244C92.0147 16.4234 91.5233 16.0371 90.9536 15.8137C90.3837 15.5904 89.7608 15.5401 89.1626 15.6692C88.5644 15.7981 88.0175 16.1007 87.5904 16.5389C87.1633 16.9772 86.8748 17.5316 86.7613 18.1329C86.6477 18.7342 86.714 19.3558 86.9518 19.9195C87.1897 20.4834 87.5885 20.9646 88.0984 21.303C88.6084 21.6413 89.2068 21.8217 89.8187 21.8217C90.2363 21.8327 90.6515 21.7575 91.0386 21.6006C91.4257 21.4437 91.7762 21.2084 92.0682 20.9098C92.3601 20.6111 92.5873 20.2553 92.7353 19.8648C92.8834 19.4742 92.9492 19.0573 92.9285 18.6402V18.6309Z" fill="#3DC964"/>
</svg>
