<svg width="156" height="40" viewBox="0 0 156 40" fill="none" xmlns="http://www.w3.org/2000/svg">
<path d="M52.5146 27.555H55.9953V11.1757H52.5146V27.555Z" fill="#2E2E2E"/>
<path d="M63.1356 27.9189C66.7755 27.9189 69.1641 25.5758 69.1641 21.4354C69.1641 17.4316 66.8437 14.9292 63.1356 14.9292C59.4958 14.9292 57.1299 17.2724 57.1299 21.4354C57.1299 25.462 59.4275 27.9189 63.1356 27.9189ZM63.1356 25.098C61.566 25.098 60.7015 23.8013 60.7015 21.4354C60.7015 19.0468 61.5432 17.7501 63.1356 17.7501C64.7281 17.7501 65.5925 19.0695 65.5925 21.4354C65.5925 23.8241 64.7508 25.098 63.1356 25.098Z" fill="#2E2E2E"/>
<path d="M74.8264 27.5777C76.1458 27.5777 77.2378 27.0317 78.0112 25.9625V28.0099C78.0112 29.7161 77.1695 30.2848 75.9183 30.2848C74.7126 30.2848 73.7799 29.6934 73.6434 28.6014H70.1628C70.595 31.5815 72.8472 32.9465 75.9638 32.9465C79.1714 32.9465 81.4919 31.2403 81.4919 27.9644V15.3159H78.0112V16.4534C77.2605 15.4524 76.1913 14.9292 74.8264 14.9292C71.778 14.9292 69.7988 17.2041 69.7988 21.2762C69.7988 25.1663 71.7325 27.5777 74.8264 27.5777ZM75.6681 24.7568C74.1666 24.7568 73.3704 23.5056 73.3704 21.2762C73.3704 18.9785 74.1666 17.7501 75.6681 17.7501C77.1923 17.7501 78.0112 19.0013 78.0112 21.2534C78.0112 23.5284 77.215 24.7568 75.6681 24.7568Z" fill="#2E2E2E"/>
<path d="M88.6518 27.9189C92.2916 27.9189 94.6803 25.5758 94.6803 21.4354C94.6803 17.4316 92.3598 14.9292 88.6518 14.9292C85.0119 14.9292 82.646 17.2724 82.646 21.4354C82.646 25.462 84.9437 27.9189 88.6518 27.9189ZM88.6518 25.098C87.0821 25.098 86.2176 23.8013 86.2176 21.4354C86.2176 19.0468 87.0593 17.7501 88.6518 17.7501C90.2442 17.7501 91.1087 19.0695 91.1087 21.4354C91.1087 23.8241 90.2669 25.098 88.6518 25.098Z" fill="#2E2E2E"/>
<path d="M95.8384 14.0875H99.3194V11.1757H95.8384V14.0875ZM95.8384 27.555H99.3194V15.316H95.8384V27.555Z" fill="#2E2E2E"/>
<path d="M104.457 32.5825V26.3265C105.185 27.373 106.231 27.9189 107.528 27.9189C110.644 27.9189 112.669 25.5758 112.669 21.4127C112.669 17.4089 110.69 14.9292 107.528 14.9292C106.254 14.9292 105.207 15.5207 104.457 16.5899V15.3159H100.976V32.5825H104.457ZM106.8 17.7501C108.279 17.7501 109.097 19.0468 109.097 21.4127C109.097 23.8013 108.301 25.098 106.8 25.098C105.276 25.098 104.457 23.7786 104.457 21.4127C104.457 19.0468 105.253 17.7501 106.8 17.7501Z" fill="#2E2E2E"/>
<path d="M116.849 18.7055C116.849 18.0458 117.441 17.5908 118.35 17.5908C119.579 17.5908 120.307 18.1141 120.512 19.3653H123.97C123.628 16.2714 121.399 14.9292 118.464 14.9292C115.188 14.9292 113.528 16.8401 113.528 18.8875C113.528 23.8013 120.944 21.6857 120.944 24.0516C120.944 24.8023 120.33 25.28 119.101 25.28C117.804 25.28 116.872 24.6658 116.713 23.5284H113.232C113.687 26.554 115.916 27.9189 119.01 27.9189C122.195 27.9189 124.424 26.2583 124.424 23.8468C124.424 19.0013 116.849 21.117 116.849 18.7055Z" fill="#2E2E2E"/>
<path d="M133 22.3454C133 23.9151 132.135 25.098 130.793 25.098C129.565 25.098 128.973 24.3246 128.973 22.7549V15.3159H125.493V23.4601C125.493 26.5085 127.199 27.9189 129.519 27.9189C130.998 27.9189 132.204 27.2819 133 25.917V27.5549H136.48V15.3159H133V22.3454Z" fill="#2E2E2E"/>
<path d="M138.162 27.5549H141.643V20.5255C141.643 18.9558 142.439 17.7501 143.645 17.7501C144.759 17.7501 145.305 18.5463 145.305 20.0932V27.5549H148.763V20.5255C148.763 18.9558 149.582 17.7501 150.788 17.7501C151.903 17.7501 152.426 18.5463 152.426 20.0932V27.5549H155.906V19.388C155.906 16.3624 154.223 14.9292 151.948 14.9292C150.424 14.9292 149.127 15.5662 148.285 16.9539C147.671 15.5889 146.443 14.9292 144.987 14.9292C143.576 14.9292 142.416 15.5434 141.643 16.8629V15.3159H138.162V27.5549Z" fill="#2E2E2E"/>
<path d="M39.3147 32.5525C43.0851 29.1857 45.3972 24.642 45.3972 19.6423C45.3972 9.26341 35.4335 0.849609 23.1427 0.849609C10.8519 0.849609 0.888184 9.26341 0.888184 19.6423C0.888184 30.0213 10.8519 38.4351 23.1427 38.4351C26.6296 38.4351 29.9292 37.7579 32.8671 36.5507C36.3182 38.681 40.5464 40.2122 45.2161 39.8892C42.7491 39.2621 40.6272 36.7219 39.3147 32.5525Z" fill="#2E2E2E"/>
<path d="M39.4627 19.6422C39.4627 27.2899 32.156 33.4895 23.1427 33.4895C14.1295 33.4895 6.82275 27.2899 6.82275 19.6422C6.82275 11.9945 14.1295 5.79492 23.1427 5.79492C32.156 5.79492 39.4627 11.9945 39.4627 19.6422Z" fill="#5D5BEA"/>
<path d="M33.5282 19.6423C33.5282 24.5587 28.8785 28.5441 23.1428 28.5441C17.407 28.5441 12.7573 24.5587 12.7573 19.6423C12.7573 14.7259 17.407 10.7405 23.1428 10.7405C28.8785 10.7405 33.5282 14.7259 33.5282 19.6423Z" fill="#2E2E2E"/>
</svg>
