<svg width="177" height="37" viewBox="0 0 177 37" fill="none" xmlns="http://www.w3.org/2000/svg">
<path fill-rule="evenodd" clip-rule="evenodd" d="M8.77035 5.08995C5.17367 7.90139 2.62098 11.8355 1.51878 16.2655H3.31154C6.33578 16.221 9.29802 17.1249 11.7823 18.8501C11.9258 18.9539 12.0755 19.0488 12.2305 19.134H12.4397C12.5948 19.0488 12.7445 18.9539 12.8879 18.8501C15.3942 17.1648 18.3459 16.2646 21.3662 16.2646C24.3864 16.2646 27.3381 17.1648 29.8444 18.8501C29.9879 18.9539 30.1375 19.0488 30.2926 19.134H30.5018C30.6568 19.0488 30.8065 18.9539 30.95 18.8501C33.4343 17.1249 36.3965 16.221 39.4208 16.2655H41.2135C40.1113 11.8355 37.5587 7.90139 33.962 5.08995C30.3652 2.27844 25.9313 0.751099 21.3662 0.751099C16.801 0.751099 12.3671 2.27844 8.77035 5.08995ZM39.4208 24.572C38.2547 24.5411 37.1141 24.9161 36.1938 25.6327C34.4905 26.8185 32.465 27.454 30.3897 27.454C28.3145 27.454 26.2889 26.8185 24.5857 25.6327C23.6666 24.9138 22.5252 24.5385 21.3587 24.572C20.1929 24.5436 19.0532 24.9183 18.1317 25.6327C16.4316 26.8192 14.4083 27.4554 12.3351 27.4554C10.2619 27.4554 8.23865 26.8192 6.53851 25.6327C5.61823 24.9161 4.4776 24.5411 3.31154 24.572H0.90625V19.7764H3.38624C5.46554 19.7353 7.50123 20.3753 9.18284 21.599C10.1176 22.2882 11.2484 22.66 12.4098 22.66C13.5712 22.66 14.702 22.2882 15.6368 21.599C17.3401 20.4134 19.3656 19.7777 21.4409 19.7777C23.5161 19.7777 25.5416 20.4134 27.2449 21.599C28.1797 22.2882 29.3105 22.66 30.4719 22.66C31.6333 22.66 32.7641 22.2882 33.6989 21.599C35.36 20.3908 37.3669 19.7516 39.4208 19.7764H41.8261V24.572H39.4208ZM39.4208 33.1474C38.2547 33.1165 37.1141 33.4915 36.1938 34.2081C34.4905 35.3939 32.465 36.0294 30.3897 36.0294C28.3145 36.0294 26.2889 35.3939 24.5857 34.2081C23.6666 33.4892 22.5252 33.1139 21.3587 33.1474C20.1929 33.119 19.0532 33.4937 18.1317 34.2081C16.4316 35.3946 14.4083 36.0308 12.3351 36.0308C10.2619 36.0308 8.23865 35.3946 6.53851 34.2081C5.61823 33.4915 4.4776 33.1165 3.31154 33.1474H0.90625V28.3517H3.38624C5.46554 28.3107 7.50123 28.9508 9.18284 30.1744C10.1176 30.8636 11.2484 31.2354 12.4098 31.2354C13.5712 31.2354 14.702 30.8636 15.6368 30.1744C17.3401 28.9888 19.3656 28.3532 21.4409 28.3532C23.5161 28.3532 25.5416 28.9888 27.2449 30.1744C28.1797 30.8636 29.3105 31.2354 30.4719 31.2354C31.6333 31.2354 32.7641 30.8636 33.6989 30.1744C35.36 28.9662 37.3669 28.3269 39.4208 28.3517H41.8261V33.1474H39.4208ZM54.9281 25.7253C55.6555 26.238 56.5344 26.4906 57.423 26.4424C58.002 26.436 58.5764 26.3402 59.1262 26.1585C59.1816 26.1554 59.2357 26.1403 59.2848 26.1145C59.3338 26.0886 59.3769 26.0525 59.4108 26.0085C59.4448 25.9648 59.469 25.914 59.4817 25.86C59.4944 25.8059 59.4955 25.7499 59.4847 25.6954L59.2606 23.8279C59.2457 23.559 59.0814 23.4694 58.7826 23.4694C58.5686 23.5281 58.3469 23.5532 58.1252 23.5441C57.6023 23.5441 57.3483 23.2602 57.3483 22.6925V9.91906C57.3483 9.63521 57.2139 9.48581 56.93 9.48581H54.4202C54.3616 9.47864 54.302 9.48477 54.2461 9.50404C54.1902 9.52316 54.1396 9.55483 54.0978 9.59667C54.0559 9.6385 54.0243 9.68914 54.0051 9.74502C53.9859 9.80089 53.9797 9.8605 53.9869 9.91906V23.7682C53.9732 24.1463 54.0516 24.522 54.2156 24.8631C54.3797 25.204 54.6242 25.5 54.9281 25.7253ZM67.0591 26.4558C68.695 26.4558 70.28 25.8859 71.5411 24.8438V24.8289C72.624 23.6996 73.2286 22.1955 73.2286 20.6308C73.2286 19.0662 72.624 17.5621 71.5411 16.4328C70.2775 15.3961 68.6936 14.8296 67.0591 14.8296C65.4247 14.8296 63.8408 15.3961 62.5772 16.4328C61.4689 17.5518 60.8469 19.0632 60.8469 20.6383C60.8469 22.2134 61.4689 23.7248 62.5772 24.8438C63.8384 25.8859 65.4232 26.4558 67.0591 26.4558ZM67.0741 23.6956C66.2844 23.6956 65.523 23.402 64.9377 22.8718C64.4081 22.2628 64.1163 21.4828 64.1163 20.6756C64.1163 19.8686 64.4081 19.0886 64.9377 18.4795C65.523 17.9494 66.2844 17.6557 67.0741 17.6557C67.8638 17.6557 68.6253 17.9494 69.2105 18.4795C69.7402 19.0886 70.0318 19.8686 70.0318 20.6756C70.0318 21.4828 69.7402 22.2628 69.2105 22.8718C68.6253 23.402 67.8638 23.6956 67.0741 23.6956ZM87.0484 15.2077C87.3323 15.2077 87.4667 15.3571 87.4667 15.6409V26.3527C87.4929 27.0758 87.3575 27.7954 87.0707 28.4595C86.7838 29.1237 86.3527 29.7156 85.8084 30.1922C84.6004 31.2223 83.047 31.7561 81.461 31.6862C80.0286 31.7365 78.6151 31.3454 77.4123 30.5657C76.8987 30.2285 76.4599 29.7891 76.1233 29.2752C75.7866 28.7611 75.5592 28.1834 75.4552 27.5778C75.4552 27.279 75.4552 27.1445 75.8586 27.1445H78.3685C78.475 27.1481 78.5784 27.1826 78.6658 27.2436C78.7533 27.3045 78.8213 27.3894 78.8615 27.4881C79.0243 27.9418 79.3488 28.3197 79.7728 28.5488C80.2896 28.8155 80.8647 28.9491 81.446 28.9373C81.7968 28.9565 82.1479 28.9056 82.4788 28.7876C82.8097 28.6697 83.1138 28.4868 83.3733 28.25C83.6104 28.0023 83.7947 27.7091 83.9154 27.3882C84.0361 27.0673 84.0905 26.7251 84.0754 26.3826V25.4414C83.1768 26.1023 82.0831 26.4441 80.968 26.4125C80.1875 26.4408 79.4095 26.3113 78.6803 26.0315C77.9512 25.7515 77.2862 25.3274 76.7251 24.784C75.6481 23.6698 75.046 22.1806 75.046 20.6308C75.046 19.0811 75.6481 17.5919 76.7251 16.4776C77.2889 15.9391 77.9548 15.519 78.6834 15.2419C79.4121 14.9648 80.1889 14.8363 80.968 14.8641C82.1153 14.8337 83.2385 15.1977 84.1501 15.8949V15.6559C84.1432 15.5986 84.1492 15.5405 84.1676 15.4859C84.186 15.4313 84.2163 15.3814 84.2563 15.3399C84.2964 15.2984 84.3452 15.2664 84.3992 15.2461C84.4532 15.2258 84.5111 15.2178 84.5684 15.2226L87.0484 15.2077ZM81.2518 23.7532C81.6367 23.7651 82.0196 23.6924 82.3732 23.54C82.7268 23.3878 83.0428 23.1596 83.2986 22.8717C83.7953 22.2304 84.0648 21.442 84.0648 20.6308C84.0648 19.8196 83.7953 19.0313 83.2986 18.3898C83.0437 18.106 82.7297 17.8811 82.3787 17.7314C82.0276 17.5817 81.6482 17.5108 81.2668 17.5233C80.8774 17.5111 80.4902 17.5835 80.1316 17.7358C79.7731 17.888 79.4519 18.1163 79.1901 18.4048C78.6399 19.0183 78.3505 19.8223 78.3834 20.6457C78.3565 21.4611 78.6395 22.2565 79.1752 22.8717C79.4375 23.1595 79.7589 23.3873 80.1173 23.5394C80.4757 23.6915 80.8626 23.7644 81.2518 23.7532ZM95.8778 26.4469C97.5122 26.4469 99.0961 25.8804 100.36 24.8438V24.8288C101.443 23.6995 102.047 22.1954 102.047 20.6308C102.047 19.0661 101.443 17.562 100.36 16.4327C99.0949 15.3987 97.5115 14.8339 95.8778 14.8339C94.2442 14.8339 92.6607 15.3987 91.3959 16.4327C90.312 17.5645 89.707 19.0712 89.707 20.6382C89.707 22.2054 90.312 23.7119 91.3959 24.8438C92.6595 25.8804 94.2434 26.4469 95.8778 26.4469ZM94.7348 23.4981C94.3655 23.3571 94.0278 23.1442 93.7414 22.8717C93.2205 22.2586 92.9344 21.4802 92.9344 20.6756C92.9344 19.8709 93.2205 19.0926 93.7414 18.4795C94.0278 18.2071 94.3655 17.9941 94.7348 17.853C95.1041 17.712 95.4976 17.6457 95.8928 17.6578C96.2854 17.6476 96.6762 17.715 97.0428 17.856C97.4094 17.9969 97.7445 18.2089 98.0291 18.4795C98.5502 19.0926 98.8363 19.8709 98.8363 20.6756C98.8363 21.4802 98.5502 22.2586 98.0291 22.8717C97.7445 23.1424 97.4094 23.3543 97.0428 23.4953C96.6762 23.6363 96.2854 23.7036 95.8928 23.6934C95.4976 23.7057 95.1041 23.6392 94.7348 23.4981ZM107.441 12.668C107.046 13.0137 106.539 13.2041 106.014 13.2041C105.49 13.2041 104.983 13.0137 104.588 12.668C104.409 12.499 104.266 12.2952 104.168 12.0692C104.071 11.8431 104.021 11.5995 104.021 11.3533C104.021 11.1071 104.071 10.8635 104.168 10.6374C104.266 10.4113 104.409 10.2075 104.588 10.0386C104.987 9.70153 105.492 9.51672 106.014 9.51672C106.537 9.51672 107.042 9.70153 107.441 10.0386C107.62 10.2075 107.763 10.4113 107.86 10.6374C107.958 10.8635 108.008 11.1071 108.008 11.3533C108.008 11.5995 107.958 11.8431 107.86 12.0692C107.763 12.2952 107.62 12.499 107.441 12.668ZM107.755 26.4424C106.867 26.486 105.989 26.2338 105.26 25.7253C104.961 25.4967 104.72 25.1997 104.559 24.8592C104.398 24.5187 104.321 24.1446 104.334 23.7682V15.641C104.327 15.5824 104.333 15.5228 104.352 15.4669C104.371 15.411 104.403 15.3604 104.445 15.3186C104.486 15.2767 104.537 15.2451 104.593 15.2259C104.649 15.2067 104.708 15.2005 104.767 15.2077H107.277C107.561 15.2077 107.695 15.3571 107.695 15.641V22.6925C107.695 23.2602 107.949 23.5441 108.457 23.5441C108.684 23.5523 108.91 23.527 109.129 23.4694C109.428 23.4694 109.592 23.559 109.607 23.8279L109.832 25.6954C109.842 25.7499 109.841 25.8059 109.829 25.86C109.816 25.9139 109.792 25.9647 109.758 26.0085C109.724 26.0524 109.681 26.0886 109.632 26.1144C109.582 26.1403 109.528 26.1554 109.473 26.1585C108.918 26.3412 108.339 26.437 107.755 26.4424ZM121.364 15.2222C120.63 14.9451 119.848 14.8182 119.064 14.8491C118.38 14.8342 117.7 14.9591 117.065 15.2159C116.431 15.4729 115.855 15.8564 115.374 16.3431C115.123 15.8532 114.732 15.4493 114.25 15.183C113.768 14.917 113.218 14.8006 112.67 14.8491C112.12 14.8391 111.573 14.9303 111.056 15.1181C110.951 15.1485 110.86 15.2141 110.798 15.3039C110.735 15.3936 110.705 15.502 110.713 15.6111V17.374C110.713 17.613 110.877 17.7325 111.206 17.7325H111.699C111.819 17.715 111.941 17.7256 112.056 17.7637C112.171 17.8018 112.275 17.8662 112.361 17.9518C112.447 18.0374 112.511 18.142 112.549 18.2569C112.587 18.3719 112.598 18.4941 112.58 18.614V30.8645C112.57 30.9219 112.573 30.9809 112.59 31.0365C112.608 31.0922 112.638 31.1427 112.679 31.1839C112.72 31.2252 112.771 31.2556 112.827 31.273C112.882 31.2901 112.941 31.2936 112.999 31.2828H115.509C115.792 31.2828 115.942 31.1484 115.942 30.8645V25.4713C116.849 26.1264 117.945 26.4673 119.064 26.4424C119.85 26.474 120.633 26.346 121.367 26.066C122.102 25.7862 122.772 25.3603 123.337 24.8139C124.393 23.6802 124.981 22.188 124.981 20.6383C124.981 19.0886 124.393 17.5966 123.337 16.4626C122.769 15.9212 122.098 15.4995 121.364 15.2222ZM117.674 23.5231C117.32 23.3718 117 23.1502 116.734 22.8718C116.194 22.2353 115.911 21.4201 115.942 20.586C115.907 19.7513 116.19 18.9346 116.734 18.3002C117 18.0219 117.32 17.8003 117.674 17.649C118.029 17.4975 118.41 17.4195 118.795 17.4195C119.181 17.4195 119.562 17.4975 119.916 17.649C120.271 17.8003 120.591 18.0219 120.857 18.3002C121.422 18.9235 121.718 19.7455 121.679 20.586C121.713 21.4259 121.418 22.2459 120.857 22.8718C120.591 23.1502 120.271 23.3718 119.916 23.5231C119.562 23.6745 119.181 23.7525 118.795 23.7525C118.41 23.7525 118.029 23.6745 117.674 23.5231ZM132.032 26.4423C130.691 26.4974 129.361 26.1767 128.192 25.5161C127.724 25.2337 127.324 24.8493 127.024 24.3915C126.724 23.9338 126.531 23.4143 126.459 22.8717C126.459 22.5729 126.564 22.4235 126.893 22.4235H129.089C129.193 22.4277 129.295 22.4604 129.382 22.5186C129.469 22.5765 129.538 22.6573 129.582 22.7522C129.895 23.559 130.717 23.9623 132.032 23.9623C132.49 23.9834 132.947 23.8909 133.361 23.6934C133.505 23.6289 133.627 23.5267 133.717 23.3978C133.806 23.2688 133.859 23.1179 133.869 22.9614C133.869 22.5729 133.63 22.304 133.152 22.1247C132.585 21.936 131.999 21.8107 131.404 21.7512C130.7 21.6715 130.001 21.5467 129.313 21.3778C128.643 21.2263 128.034 20.8776 127.565 20.3768C127.288 20.0365 127.085 19.6428 126.967 19.2205C126.849 18.7981 126.819 18.3559 126.879 17.9216C126.94 17.4872 127.089 17.0697 127.317 16.6955C127.546 16.3211 127.849 15.9978 128.207 15.7455C129.284 15.0596 130.548 14.7254 131.823 14.7893C133.057 14.7477 134.279 15.053 135.348 15.6708C135.78 15.915 136.151 16.2522 136.435 16.658C136.719 17.0638 136.91 17.5278 136.992 18.0163C136.992 18.3151 136.857 18.4645 136.588 18.4645H134.377C134.284 18.47 134.192 18.4473 134.112 18.3994C134.032 18.3514 133.968 18.2803 133.929 18.1956C133.781 17.8418 133.503 17.5583 133.152 17.4038C132.756 17.1967 132.314 17.0938 131.868 17.105C131.43 17.0812 130.993 17.1686 130.598 17.359C130.458 17.4128 130.339 17.5069 130.253 17.6294C130.168 17.7519 130.122 17.8971 130.12 18.0462C130.129 18.2506 130.204 18.4464 130.333 18.6051C130.462 18.7638 130.639 18.8767 130.837 18.9276C131.41 19.144 132.007 19.2943 132.615 19.3758C133.313 19.4679 134.006 19.5975 134.691 19.7643C135.361 19.9159 135.97 20.2644 136.439 20.7652C136.69 21.0412 136.884 21.364 137.01 21.7154C137.136 22.0666 137.19 22.4394 137.171 22.812C137.184 23.3284 137.063 23.8394 136.819 24.295C136.576 24.7505 136.218 25.1352 135.782 25.4115C134.666 26.1281 133.358 26.4876 132.032 26.4423ZM152.956 25.8547C152.968 25.8026 152.971 25.7483 152.962 25.6953L152.783 23.8279C152.78 23.7693 152.765 23.7119 152.738 23.6602C152.71 23.6085 152.671 23.5637 152.623 23.5292C152.575 23.4947 152.522 23.4714 152.463 23.4611C152.407 23.4506 152.347 23.4535 152.29 23.4693C152.066 23.5279 151.834 23.553 151.603 23.544C151.11 23.544 150.856 23.2601 150.856 22.6775V15.6409C150.856 15.357 150.721 15.2076 150.438 15.2076H147.898C147.614 15.2076 147.479 15.357 147.479 15.6409V21.1387C147.494 21.4653 147.444 21.7916 147.327 22.0974C147.212 22.4032 147.034 22.682 146.807 22.9165C146.567 23.1391 146.284 23.3118 145.977 23.4246C145.669 23.5376 145.342 23.5882 145.014 23.5739C144.695 23.5864 144.375 23.5303 144.079 23.4091C143.783 23.2879 143.516 23.1048 143.296 22.8717C142.856 22.3632 142.627 21.7061 142.654 21.0341V15.6409C142.654 15.357 142.52 15.2076 142.236 15.2076H139.726C139.442 15.2076 139.307 15.357 139.307 15.6409V21.4823C139.275 22.1412 139.377 22.7995 139.605 23.4182C139.834 24.0369 140.184 24.6031 140.637 25.0828C141.093 25.5407 141.64 25.8982 142.242 26.1323C142.844 26.3664 143.488 26.472 144.133 26.4423C145.522 26.5154 146.888 26.0498 147.943 25.1425C148.286 25.5981 148.742 25.9571 149.266 26.1847C149.789 26.4124 150.363 26.5012 150.931 26.4423C151.504 26.4323 152.073 26.3365 152.619 26.1584C152.673 26.1511 152.723 26.1333 152.77 26.106C152.816 26.0787 152.856 26.0424 152.888 25.9992C152.921 25.956 152.943 25.907 152.956 25.8547ZM176.702 25.6954C176.715 25.7489 176.716 25.8048 176.706 25.8588C176.694 25.9128 176.672 25.9639 176.639 26.0081C176.606 26.0523 176.564 26.0888 176.515 26.1148C176.467 26.1409 176.413 26.1558 176.358 26.1585C175.802 26.3392 175.224 26.4349 174.64 26.4424C173.751 26.4883 172.874 26.2359 172.145 25.7253C171.83 25.5066 171.574 25.2136 171.399 24.8722C171.225 24.5309 171.137 24.1515 171.144 23.7682V20.2573C171.175 19.5875 170.951 18.9306 170.517 18.4198C170.307 18.1863 170.047 18.0022 169.759 17.8807C169.469 17.7594 169.157 17.7037 168.843 17.7176C168.561 17.707 168.28 17.7606 168.02 17.8745C167.762 17.9883 167.533 18.1595 167.349 18.3749C166.955 18.8756 166.753 19.5013 166.782 20.1378V25.6506C166.782 25.9344 166.647 26.0838 166.363 26.0838H163.838C163.78 26.0912 163.72 26.0849 163.665 26.0658C163.608 26.0465 163.558 26.0148 163.516 25.973C163.474 25.9313 163.443 25.8805 163.423 25.8246C163.404 25.7688 163.398 25.7093 163.405 25.6506V20.2573C163.438 19.5948 163.23 18.9425 162.823 18.4198C162.64 18.2002 162.412 18.0234 162.153 17.9021C161.896 17.7808 161.614 17.7178 161.329 17.7176C161.024 17.7054 160.721 17.7575 160.437 17.8709C160.153 17.9841 159.897 18.1559 159.685 18.3749C159.258 18.8596 159.038 19.4927 159.073 20.1378V25.6506C159.08 25.7093 159.074 25.7688 159.055 25.8246C159.035 25.8805 159.004 25.9313 158.962 25.973C158.92 26.0148 158.87 26.0465 158.814 26.0658C158.757 26.0849 158.698 26.0912 158.639 26.0838H156.204C155.92 26.0838 155.786 25.9344 155.786 25.6506V18.614C155.804 18.4942 155.793 18.372 155.755 18.2569C155.717 18.142 155.653 18.0375 155.566 17.9519C155.481 17.8663 155.377 17.8019 155.262 17.7638C155.147 17.7257 155.024 17.7151 154.905 17.7325H154.412C154.083 17.7325 153.919 17.613 153.919 17.374V15.6111C153.911 15.502 153.941 15.3936 154.004 15.3039C154.066 15.2142 154.158 15.1486 154.262 15.1181C154.779 14.9303 155.326 14.8392 155.876 14.8492C156.403 14.8042 156.933 14.9094 157.404 15.1526C157.875 15.3958 158.266 15.7671 158.535 16.2236C159.038 15.746 159.636 15.3773 160.289 15.1408C160.942 14.9043 161.636 14.8051 162.33 14.8492C163.003 14.8163 163.674 14.9426 164.29 15.2177C164.905 15.4929 165.446 15.9092 165.87 16.4328C166.365 15.8954 166.973 15.4747 167.65 15.2007C168.326 14.9269 169.055 14.8069 169.784 14.8492C170.436 14.8187 171.087 14.9237 171.697 15.1578C172.306 15.3918 172.861 15.7496 173.325 16.2087C173.779 16.6875 174.13 17.2536 174.359 17.8725C174.588 18.4913 174.689 19.1503 174.655 19.8092V22.6925C174.655 23.2602 174.909 23.5441 175.387 23.5441C175.618 23.5548 175.85 23.5297 176.074 23.4694C176.383 23.4694 176.548 23.5889 176.567 23.8279L176.702 25.6954Z" fill="#ECA944"/>
</svg>
